/* XPM */
static char *result[] = {
/* columns rows colors chars-per-pixel */
"64 64 192 2 ",
"   c #020101",
".  c #0A0603",
"X  c #0E0905",
"o  c #03050C",
"O  c #07080F",
"+  c #0E0B0B",
"@  c #080708",
"#  c #110B06",
"$  c #1A0E06",
"%  c #150E09",
"&  c #190F09",
"*  c #1C120B",
"=  c #1A110A",
"-  c #040713",
";  c #070B16",
":  c #0A0C15",
">  c #030C1C",
",  c #0C0E19",
"<  c #110F14",
"1  c #0C111D",
"2  c #07111E",
"3  c #1D1516",
"4  c #13131B",
"5  c #19161E",
"6  c #1E1B1D",
"7  c #23160D",
"8  c #25190F",
"9  c #2A1A0F",
"0  c #331E0F",
"q  c #241912",
"w  c #2D1C11",
"e  c #231C1D",
"r  c #2B1E1E",
"t  c #311F13",
"y  c #2E2015",
"u  c #26211B",
"i  c #2B241D",
"p  c #342114",
"a  c #3B2516",
"s  c #34251B",
"d  c #3D2718",
"f  c #3D291A",
"g  c #36291D",
"h  c #0E1222",
"j  c #191921",
"k  c #191A26",
"l  c #0C1D3A",
"z  c #031330",
"x  c #211F23",
"c  c #15203C",
"v  c #2B2521",
"b  c #2C292B",
"n  c #342921",
"m  c #3B2C25",
"M  c #3B2E2D",
"N  c #362624",
"B  c #3D342B",
"V  c #37322D",
"C  c #252938",
"Z  c #383434",
"A  c #412717",
"S  c #412817",
"D  c #442B1A",
"F  c #492E1B",
"G  c #4D321E",
"H  c #50341E",
"J  c #59381D",
"K  c #422E23",
"L  c #422C29",
"P  c #492E22",
"I  c #4E3320",
"U  c #47322A",
"Y  c #523621",
"T  c #563923",
"R  c #593B24",
"E  c #5C3D29",
"W  c #573C2D",
"Q  c #493632",
"!  c #4B3934",
"~  c #463B36",
"^  c #643E2C",
"/  c #5F4029",
"(  c #4C4234",
")  c #4D453B",
"_  c #474035",
"`  c #5D4434",
"'  c #574031",
"]  c #64432D",
"[  c #6C442D",
"{  c #654531",
"}  c #684731",
"|  c #6C4A34",
" . c #684B3C",
".. c #744737",
"X. c #724E35",
"o. c #744C38",
"O. c #7D4B34",
"+. c #6D513F",
"@. c #7A543C",
"#. c #79553E",
"$. c #122449",
"%. c #112749",
"&. c #142D55",
"*. c #1C3157",
"=. c #2A324F",
"-. c #33364E",
";. c #333243",
":. c #2A3654",
">. c #1A356A",
",. c #183873",
"<. c #293B67",
"1. c #253E75",
"2. c #394665",
"3. c #23417D",
"4. c #3F4F70",
"5. c #4B4542",
"6. c #584D40",
"7. c #645645",
"8. c #665A4B",
"9. c #6B5C4B",
"0. c #7F5840",
"q. c #685E52",
"w. c #6D604E",
"e. c #6D6251",
"r. c #736553",
"t. c #766A5A",
"y. c #854F36",
"u. c #865239",
"i. c #93583F",
"p. c #845C44",
"a. c #8B5F45",
"s. c #835E4A",
"d. c #9A5E43",
"f. c #8A6046",
"g. c #83624D",
"h. c #8E6349",
"j. c #93664B",
"k. c #9B664B",
"l. c #94694E",
"z. c #9C6A4E",
"x. c #8E6A53",
"c. c #9B6D51",
"v. c #936A50",
"b. c #9C7155",
"n. c #A56A4D",
"m. c #A8694C",
"M. c #A26F53",
"N. c #A57356",
"B. c #A47659",
"V. c #AC7B5D",
"C. c #A87558",
"Z. c #B07D5E",
"A. c #897864",
"S. c #AB7E61",
"D. c #B27F60",
"F. c #8F816F",
"G. c #92846E",
"H. c #968671",
"J. c #9C8871",
"K. c #A68267",
"L. c #A48469",
"P. c #AE8A6E",
"I. c #B18364",
"U. c #BA8C6C",
"Y. c #A18B72",
"T. c #AB997F",
"R. c #A59279",
"E. c #BC9475",
"W. c #BF9A7A",
"Q. c #B79678",
"!. c #1E4383",
"~. c #1E438A",
"^. c #244C8A",
"/. c #2B508B",
"(. c #305A9A",
"). c #B09C81",
"_. c #BF9E80",
"`. c #B3A185",
"'. c #BEA285",
"]. c #BCA589",
"[. c #BAA68A",
"{. c #C1A587",
"}. c #C1A789",
"|. c #C1AC8F",
" X c #C3AE91",
".X c #C9AF90",
"XX c #C5B193",
"oX c #CBB799",
"OX c #C9B394",
"+X c #D3BC9C",
"@X c #DBC3A1",
"#X c #509B66",
/* pixels */
"#X#X#X#X#X#X#X#X#X#X#X#X#X#X#X#X#X#X#X#X#X#X#X#X#X#X#X#X#X#X#X#X#X#X#X#X#X#X#X#X#X#X#X#X#X#X#X#X#X#X#X#X#X#X#X#X#X#X#X#X#X#X#X#X",
"#X#X#X#X#X#X#X#X#X#X#X#X#X#X#X#X#X#X#X#X#X#X#X#X#X#X#X#X#X#X#X#X#X#X#X#X#X#X#X#X#X#X#X#X#X#X#X#X#X#X#X#X#X#X#X#X#X#X#X#X#X#X#X#X",
"#X#X#X#X#X#X#X#X#X#X#X#X#X#X#X#X#X#X#X#X#X#X#X#X#X#X#X#X#X#X#X#X#X#X#X#X#X#X#X#X#X#X#X#X#X#X#X#X#X#X#X#X#X#X#X#X#X#X#X#X#X#X#X#X",
"#X#X#X#X#X#X#X#X#X#X#X#X#X#X#X#X#X#X#X#X#X#X#X#X#X#X#X#X#X#X#X#X#X#X#X#X#X#X#X#X#X#X#X#X#X#X#X#X#X#X#X#X#X#X#X#X#X#X#X#X#X#X#X#X",
"#X#X#X#X#X#X#X#X#X#X#X#X#X#X#X#X#X#X#X#X#X#X#X#X#X#X#X#X#X#X#X#X#X#X#X#X#X#X#X#X#X#X#X#X#X#X#X#X#X#X#X#X#X#X#X#X#X#X#X#X#X#X#X#X",
"#X#X#X#X#X#X#X#X#X#X#X#X#X#X#X#X#X#X#X#X#X#X#X#X#X#X#X#X#X#X#X#X#X#X#X#X#X#X#X#X#X#X#X#X#X#X#X#X#X#X#X#X#X#X#X#X#X#X#X#X#X#X#X#X",
"#X#X#X#X#X#X#X#X#X#X#X#X#X#X#X#X#X#X#X#X#X#X#X#X#X#X#X#X#X#X#X#X#X#X#X#X#X#X#X#X#X#X#X#X#X#X#X#X#X#X#X#X#X#X#X#X#X#X#X#X#X#X#X#X",
"#X#X#X#X#X#X#X#X#X#X#X#X#X#X#X#X#X#X#X#X#X#X#X#X#X#X#X#X#X#X#X#X#X#X#X#X#X#X#X#X#X#X#X#X#X#X#X#X#X#X#X#X#X#X#X#X#X#X#X#X#X#X#X#X",
"#X#X#X#X#X#X#X#X#X#X#X#X#X#X#X#X#X#X#X#X#X#X#X#X#X#X#X#X#X#X#X#X#X#X#X#X#X#X#X#X#X#X#X#X#X#X#X#X#X#X#X#X#X#X#X#X#X#X#X#X#X#X#X#X",
"#X#X#X#X#X#X#X#X#X#X#X#X#X#X#X#X#X#X#X#X#X#X#X#X#X#X#X#X#X#X#X#X#X#X#X#X#X#X#X#X#X#X#X#X#X#X#X#X#X#X#X#X#X#X#X#X#X#X#X#X#X#X#X#X",
"#X#X#X#X#X#X#X#X#X#X#X#X#X#X#X#X#X#X#X#X#X#X#X#X#X#X#X#X#X#X#X#X#X#X#X#X#X#X#X#X#X#X#X#X#X#X#X#X#X#X#X#X#X#X#X#X#X#X#X#X#X#X#X#X",
"#X#X#X#X#X#X#X#X#X#X#X#X#X#X#X#X#X#X#X#X#X#X#X#X#X#X#X#X#X#X#X#X#X#X#X#X#X#X#X#X#X#X#X#X#X#X#X#X#X#X#X#X#X#X#X#X#X#X#X#X#X#X#X#X",
"#X#X#X#X#X#X#X#X#X#X#X#X#X#X#X#X#X#X#X#X#X#X#X#X#X#X#X#X#X#X#X#X#X#X#X#X#X#X#X#X#X#X#X#X#X#X#X#X#X#X#X#X#X#X#X#X#X#X#X#X#X#X#X#X",
"#X#X#X#X#X#X#X#X#X#X#X#X#X#X#X#X#X#X#X#X#X#X#X#X#X#X#X#X#X#X#X#X#X#X#X#X#X#X#X#X#X#X#X#X#X#X#X#X#X#X#X#X#X#X#X#X#X#X#X#X#X#X#X#X",
"#X#X#X#X#X#X#X#X#X#X#X#X#X#X#X#X#X#X#X#X#X#X#X#X#X#X#X#X#X#X#X#X#X#X#X#X#X#X#X#X#X#X#X#X#X#X#X#X#X#X#X#X#X#X#X#X#X#X#X#X#X#X#X#X",
"#X#X#X#X#X#X#X#X#X#X#X#X#X#X#X#X#X#X#X#X#X#X#X#X#X#X#X#X#X#X#X#X#X#X#X#X#X#X#X#X#X#X#X#X#X#X#X#X#X#X#X#X#X#X#X#X#X#X#X#X#X#X#X#X",
"#X#X#X#X#X#X#X#X#X#X#X#X#X#X#X#X#X#X#X#X#X#X#X#X#X#X#X#X#X#X#X#X#X#X#X#X#X#X#X#X#X#X#X#X#X#X#X#X#X#X#X#X#X#X#X#X#X#X#X#X#X#X#X#X",
"#X#X#X#X#X#X#X#X#X#X#X#X#X#X#X#X#X#X#X#X#X#X#X#X#X#X#X#X#X#X#X#X#X#X#X#X#X#X#X#X#X#X#X#X#X#X#X#X#X#X#X#X#X#X#X#X#X#X#X#X#X#X#X#X",
"#X#X#X#X#X#X#X#X#X#X#X#X#X#X#X#X#X#X#X#X#X#X#X#X#X#X#X#X#X#X#X#X#X#X#X#X#X#X#X#X#X#X#X#X#X#X#X#X#X#X#X#X#X#X#X#X#X#X#X#X#X#X#X#X",
"#X#X#X#X#X#X#X#X#X#X#X#X#X#X#X#X#X#X#X#X#X#X#X#X#X#X#X#X#X#X#X#X#X#X#X#X#X#X#X#X#X#X#X#X#X#X#X#X#X#X#X#X#X#X#X#X#X#X#X#X#X#X#X#X",
"#X#X#X#X#X#X#X#X#X#X#X#X#X#X#X#X#X#X#X#X#X#X#X#X#X#X#X#X#X#X#X#X#X#X#X#X#X#X#X#X#X#X#X#X#X#X#X#X#X#X#X#X#X#X#X#X#X#X#X#X#X#X#X#X",
"#X#X#X#X#X#X#X#X#X#X#X#X#X#X#X#X#X#X#X#X#X#X#X#X#X#X#X#X#X#X#X#X#X#X#X#X#X#X#X#X#X#X#X#X#X#X#X#X#X#X#X#X#X#X#X#X#X#X#X#X#X#X#X#X",
"#X#X#X#X#X#X#X#X#X#X#X#X#X#X#X#X#X#X#X#X#X#X#X#X#X#X#X#X#X#X#X#X#X#X#X#X#X#X#X#X#X#X#X#X#X#X#X#X#X#X#X#X#X#X#X#X#X#X#X#X#X#X#X#X",
"#X#X#X#X#X#X#X#X#X#X#X#X#X#X#X#X#X#X#X#X#X#X#X#X#X#X#X#X#X#X#X#X#X#X#X#X#X#X#X#X#X#X#X#X#X#X#X#X#X#X#X#X#X#X#X#X#X#X#X#X#X#X#X#X",
"#X#X#X#X#X#X#X#X#X#X#X#X#X#X#X#X#X#X#X#X#X#X#X#X#X#X#X#X#X#X#X#X#X#X#X#X#X#X#X#X#X#X#X#X#X#X#X#X#X#X#X#X#X#X#X#X#X#X#X#X#X#X#X#X",
"#X#X#X#X#X#X#X#X#X#X#X#X#X#X#X#X#X#X#X#X#X#X#X#X#X#X#X#X#X#X#X#X#X#X#X#X#X#X#X#X#X#X#X#X#X#X#X#X#X#X#X#X#X#X#X#X#X#X#X#X#X#X#X#X",
"#X#X#X#X#X#X#X#X#X#X#X#X#X#X#X#X#X#X#X#X#X#X#X#X#X#X#X                    #X#X#X#X#X        #X#X#X#X#X#X#X#X#X#X#X#X#X#X#X#X#X#X",
"#X#X#X#X#X#X#X#X#X#X#X#X#X#X#X#X#X#X#X#X#X#X#X#X#X#X                        #X#X#X          #X#X#X#X#X#X#X#X#X#X#X#X#X#X#X#X#X#X",
"#X#X#X#X#X#X#X#X#X#X#X#X#X#X#X#X#X#X#X#X#X#X#X#X#X#X      # % = = = $ # # X #X#X# % % X       #X#X#X#X#X#X#X#X#X#X#X#X#X#X#X#X#X",
"#X#X#X#X#X#X#X#X#X#X#X#X#X#X#X#X#X#X#X#X#X#X#X#X#X#X    # 8 a g d p p w 7 = X   = y p * .               #X#X#X#X#X#X#X#X#X#X#X#X",
"#X#X#X#X#X#X#X#X#X#X#X#X#X#X#X#X#X#X#X#X#X#X#X#X#X#X    % p G Y Y Y G D a 7 # X 8 D F p #               #X#X#X#X#X#X#X#X#X#X#X#X",
"#X#X#X#X#X#X#X#X#X#X#X#X#X#X#X#X#X#X#X#X#X#X#X#X#X#X    X q a F Y T T H D p * = y G I f 7 % % * * * = = # #X#X#X#X#X#X#X#X#X#X#X",
"#X#X#X#X#X#X#X#X#X#X#X#X#X#X#X#X#X#X#X#X#X#X#X#X#X#X    @ X * y F Y T Y G f p w f H Y D p w t a d f a y * .   #X#X#X#X#X#X#X#X#X",
"#X#X#X#X#X#X#X#X#X#X#X#X#X#X#X#X#X#X#X#X#X#X#X#X#X#X        X 7 f Y / T T G D S F H T G D S F H Y T Y D 8 #   #X#X#X#X#X#X#X#X#X",
"#X#X#X#X#X#X#X#X#X#X#X#X#X#X#X#X#X#X#X#X#X#X#X#X#X. # & $ = * t F T R R R Y G G H T T T G G H T J / / G g 8 * # #X#X#X#X#X#X#X#X",
"#X#X#X#X#X#X#X#X#X#X#X#X#X#X#X#X#X#X#X#X#X#X#X#X  X * 8 w a d F Y T R R R Y J H H T T T Y Y T T T / T Y H f y * .   #X#X#X#X#X#X",
"#X#X#X#X#X#X#X#X#X#X#X#X#X#X#X#X#X#X#X#X#X#X#X    % 8 d F G Y R T T T R T T T T R T T T T R T T T T T T / H f q #   #X#X#X#X#X#X",
"#X#X#X#X#X#X#X#X#X#X#X#X#X#X#X#X#X#X#X#X#X#X. X & 7 p F H T R R T / T T T R T R T T T R R R R R T / T J T / G s 8 = % #X#X#X#X#X",
"#X#X#X#X#X#X#X#X#X#X#X#X#X#X#X#X#X#X#X#X#X  X $ 9 a D H Y R R R T T T T T T T R T R T T R T T T T T T / T / G F D y * .   #X#X#X",
"#X#X#X#X#X#X#X#X#X#X#X#X#X#X#X#X#X#X#X#X    X 7 a D H T T R T R T T T T R R T T T T T T T T Y Y Y T T T T T / J T f * .   #X#X#X",
"#X#X#X#X#X#X#X#X#X#X#X#X#X#X#X#X#X#X#X#X    X 7 a F Y T R R T Y H H H T T T T T T T J Y H G G F G G H T R R R R / f * .   #X#X#X",
"#X#X#X#X#X#X#X#X#X#X#X#X#X#X#X#X#X#X#X#X    X 7 a F H T R R T Y G D G H J / T T / T T G F D D D D G T T T R R R J f * .   #X#X#X",
"#X#X#X#X#X#X#X#X#X#X#X#X#X#X#X#X#X#X#X#X    X 7 0 F H Y T Y Y H F S D H T T R T / T T G D S D G Y R / / R T T T T f 8 %   #X#X#X",
"#X#X#X#X#X#X#X#X#X#X#X#X#X#X#X#X#X#X#X#X    X 7 a F F F H H F F S f D Y T R T T T T T F d D Y } X.@.@.X.] Y G Y T G p * % X #X#X",
"#X#X#X#X#X#X#X#X#X#X#X#X#X#X#X#X#X#X#X#X    X 7 a A S S D D D S S D F H T T T T T T Y G f G } f.c.b.c.f.} I D G T H D p 8 #     ",
"#X#X#X#X#X#X#X#X#X#X#X#X#X#X#X#X#X#X#X#X    X 7 a S D D D A A A d S F H T T T T T J Y G I / @.z.V.I.V.c.@.E Y Y H H F A 9 &     ",
"#X#X#X#X#X#X#X#X#X#X#X#X#X#X  #X#X#X#X      . 7 a S F F F S d a a S D H T / T T G G G / | p.l.B.Z.I.V.B.j.0.X.E Y G F S 9 %     ",
"#X#X#X#X#X#X#X#X#X#X#X#X                    X 7 a F H H G F S d a S F H T T T T G D I } f.b.B.V.V.V.V.V.C.c.p.} G S S d 0 =     ",
"#X#X#X#X#X#X#X#X#X#X#X2 2 , : # X X X # X # * 9 a F H J Y G D F I Y Y Y Y Y T R Y Y W | s.v.B.S.I.I.I.K.b.x.0.W f p A a 9 #     ",
"#X#X#X#X#X#X#X#X#X#X- l &.&.c i w 9 w w w y p g S F H T T I G E | o.} T G G Y R } X.X.{ W ` t.S.E.W.E.L.g.` U y 7 8 t a t $     ",
"#X#X#X#X#X#X#X#X#X  ; %.3./.2._ G G G G G G F D f D G T T J T X.s.l.0.E D D G E @.h.g.{ r N 7.Y.}..X].Y.7.i # . X $ w a 9 % .   ",
"#X#X#X#X#X#X#X#X. . 1 *./.(.4.( Y J T Y H F f p p a D H H T R X.j.M.h.X.R H I E @.c.b.o.B B q.).XXoX|.R.9.n =     X 7 8 8 %     ",
"#X#X#X#X#X#X#X  # $ x =.^./.2.~ H J R Y f 8 * % $ 7 p F H J R X.a.n.k.a.#.] G Y X.z.B.x.r.r.A.).XXoXXX).A.+.U q .   X % $ # #X#X",
"#X#X#X#X#X#X  . $ 9 N :.3.3.:.V D H J G t & . @ . = w f G G J [ u.d.n.M.z.@.R Y } l.I.P.R.).[.|.[.XX[.'.P.b.#.g +     @ X #X#X#X",
"#X#X#X#X#X      $ 0 m -.1.!.<.;.V f F f g i v v i g i w p D J [ y.d.n.C.N.f.| ] @.z.I.Q._.{.}._.{.}.'.Q.L.x. .s X         #X#X#X",
"#X#X#X#X: o   @ $ 0 m -.1.!.!.2.=.C u y ( w.r.r.e.) B 7 7 p G ] y.d.m.m.m.k.f.a.j.B.I.U.E.W.E.E.E.E.E.K.g./ g *       O - #X#X#X",
"#X#X#X, , O   . $ 0 m -.1.~.~.3.>.l : u 7.J.`.[.T.A.~ < # 7 A R O.i.d.d.d.d.z.M.B.B.S.S.S.S.S.S.I.I.S.h.W q X     @ @ : : #X#X#X",
"#X#X#X, , - o @ & 9 x ;.*.>.,.,.&.z - e w.).+X+X|.H.( + . & t P ^ ........p.s.g.h.s.s.s.s.s.s.s.s.g.s. .m :       O : , , #X#X#X",
"#X#X#X, , : : + < 3 3 x c $.$.$.l > o u e.`.+X@XOXH.) %   + e r N L L L L L Q ! ! Q Q Q Q Q Q Q Q ! Q M e : o o - : : , 1 #X#X#X",
"#X#X#X, , , , , < 1 1 1 h h h h , o   u 8.R.|.OX[.A.~ %   - < 4 4 4 3 5 j 5 5 j j j j j 5 5 5 5 5 5 5 4 4 , , , , : , , , #X#X#X",
"#X#X#X#X1 1 < , , , , , : : , : O @ @ e 5.t.F.H.A.e.V : o - , , > , , , , , - , ; ; ; ; ; ; ; ; : ; ; , , , , , , , , , #X#X#X#X",
"#X#X#X#X#X1 , , , , , , : : : , , O - 4 b _ 5.5.5.Z x : - : , : ; ; , : ; , > ; : , : ; ; ; , ; ; ; ; ; , , , , , , , #X#X#X#X#X",
"#X#X#X#X#X#X, , , , , , , , , , , , : 1 h j j j 5 5 1 : , , , , , , , , , , , , , , , , , , , , < 1 , , , , , , 1 1 #X#X#X#X#X#X",
"#X#X#X#X#X#X, , , , , , < , , , , , 1 1 ; ; - - - ; : , , , , , , , , , , , , , , , , 1 , , , , , 1 1 , , , , , < 1 #X#X#X#X#X#X"
};
