/* XPM */
static char *result[] = {
/* columns rows colors chars-per-pixel */
"64 64 209 2 ",
"   c #010101",
".  c #0A0603",
"X  c #0E0905",
"o  c #04060B",
"O  c #06080E",
"+  c #0C090A",
"@  c #120B06",
"#  c #140E09",
"$  c #190F09",
"%  c #1D120B",
"&  c #17100B",
"*  c #070912",
"=  c #0A0C14",
"-  c #060E1C",
";  c #0C0E19",
":  c #030710",
">  c #140F10",
",  c #161413",
"<  c #1E1511",
"1  c #1D1915",
"2  c #111119",
"3  c #1F1A1B",
"4  c #07101E",
"5  c #22150D",
"6  c #25190F",
"7  c #29190E",
"8  c #221915",
"9  c #2B1C12",
"0  c #211D19",
"q  c #241A16",
"w  c #26221C",
"e  c #2E231B",
"r  c #342114",
"t  c #3B2516",
"y  c #3B271B",
"u  c #3F2919",
"i  c #32241C",
"p  c #081226",
"a  c #0D1B36",
"s  c #151F34",
"d  c #1B2231",
"f  c #382B24",
"g  c #3D342C",
"h  c #212833",
"j  c #37312A",
"k  c #402717",
"l  c #442C1A",
"z  c #492E1B",
"x  c #412917",
"c  c #4B311E",
"v  c #51341E",
"b  c #432D21",
"n  c #44332A",
"m  c #4A3526",
"M  c #523621",
"N  c #563923",
"B  c #593B24",
"V  c #543B2D",
"C  c #5B3D29",
"Z  c #4D3B30",
"A  c #523F33",
"S  c #5E432D",
"D  c #5E4027",
"F  c #4D453A",
"G  c #584435",
"H  c #64442D",
"J  c #69462E",
"K  c #644432",
"L  c #6C4B32",
"P  c #694A36",
"I  c #724E38",
"U  c #724D35",
"Y  c #6E513C",
"T  c #76513B",
"R  c #7C553E",
"E  c #7B593F",
"W  c #0F2247",
"Q  c #142D5A",
"!  c #182F51",
"~  c #222E48",
"^  c #2F384F",
"/  c #173366",
"(  c #193A75",
")  c #3A435A",
"_  c #1C417E",
"`  c #2F486B",
"'  c #24467D",
"]  c #4E4547",
"[  c #5B4C44",
"{  c #564B41",
"}  c #5C5143",
"|  c #444A5D",
" . c #5E5B58",
".. c #624E42",
"X. c #625143",
"o. c #67594A",
"O. c #7A5D44",
"+. c #775947",
"@. c #7D6B59",
"#. c #7B6954",
"$. c #76624C",
"%. c #444C62",
"&. c #485978",
"*. c #535C74",
"=. c #6C666E",
"-. c #77696A",
";. c #646675",
":. c #69727D",
">. c #797579",
",. c #81593F",
"<. c #835B42",
"1. c #8B634A",
"2. c #86654B",
"3. c #92674D",
"4. c #896B55",
"5. c #946C51",
"6. c #9A6D52",
"7. c #84715E",
"8. c #9F7154",
"9. c #96765C",
"0. c #A27356",
"q. c #AC7B5D",
"w. c #A5785B",
"e. c #B07E5F",
"r. c #897965",
"t. c #977863",
"y. c #957A73",
"u. c #82797A",
"i. c #A77C63",
"p. c #A87D62",
"a. c #B17F60",
"s. c #9A856F",
"d. c #988168",
"f. c #9C8871",
"g. c #AB8266",
"h. c #AD8568",
"j. c #A48569",
"k. c #B38768",
"l. c #B4896B",
"z. c #B48161",
"x. c #A28D75",
"c. c #AA8E71",
"v. c #A5937B",
"b. c #AA967B",
"n. c #AC987F",
"m. c #AE9073",
"M. c #B49477",
"N. c #B69679",
"B. c #BB9A7C",
"V. c #B7987A",
"C. c #C09A7B",
"Z. c #1D4485",
"A. c #2F528B",
"S. c #365484",
"D. c #23519B",
"F. c #2F5B9D",
"G. c #345A95",
"H. c #365E99",
"J. c #254C8C",
"K. c #3B649E",
"L. c #2454A2",
"P. c #255AAA",
"I. c #295EAC",
"U. c #2D5FA7",
"Y. c #255EB2",
"T. c #2C62AE",
"R. c #2A63B3",
"E. c #2863B8",
"W. c #376CB7",
"Q. c #3D6CAF",
"!. c #4B6B9E",
"~. c #6C7C97",
"^. c #797C91",
"/. c #777A8F",
"(. c #5B7EAE",
"). c #4375BA",
"_. c #4171B5",
"`. c #4F74AD",
"'. c #837D8B",
"]. c #827982",
"[. c #6B819E",
"{. c #7D839B",
"}. c #5E82B2",
"|. c #6A8AB9",
" X c #7286A9",
".X c #83889D",
"XX c #9D9993",
"oX c #AB9B86",
"OX c #B39D81",
"+X c #A19B94",
"@X c #B5A186",
"#X c #BCA386",
"$X c #B6A388",
"%X c #BBA689",
"&X c #BEA88C",
"*X c #BFAB90",
"=X c #848BA3",
"-X c #8A93A5",
";X c #9498AA",
":X c #8C99B2",
">X c #9AA3B7",
",X c #C1A587",
"<X c #C2AB8E",
"1X c #C2AE90",
"2X c #C6B193",
"3X c #CAB393",
"4X c #CEB898",
"5X c #D5BD9B",
"6X c #509B66",
/* pixels */
"6X6X6X6X6X6X6X6X6X6X6X6X6X6X6X6X6X6X6X6X6X6X6X6X6X6X6X6X6X6X6X6X6X6X6X6X6X6X6X6X6X6X6X6X6X6X6X6X6X6X6X6X6X6X6X6X6X6X6X6X6X6X6X6X",
"6X6X6X6X6X6X6X6X6X6X6X6X6X6X6X6X6X6X6X6X6X6X6X6X6X6X6X6X6X6X6X6X6X6X6X6X6X6X6X6X6X6X6X6X6X6X6X6X6X6X6X6X6X6X6X6X6X6X6X6X6X6X6X6X",
"6X6X6X6X6X6X6X6X6X6X6X6X6X6X6X6X6X6X6X6X6X6X6X6X6X6X6X6X6X6X6X6X6X6X6X6X6X6X6X6X6X6X6X6X6X6X6X6X6X6X6X6X6X6X6X6X6X6X6X6X6X6X6X6X",
"6X6X6X6X6X6X6X6X6X6X6X6X6X6X6X6X6X6X6X6X6X                    6X6X6X6X6X        6X6X6X6X6X6X6X6X6X6X6X6X6X6X6X6X6X6X6X6X6X6X6X6X",
"6X6X6X6X6X6X6X6X6X6X6X6X6X6X6X6X6X6X6X6X          .   . .     . 6X6X6Xo           6X6X6X6X6X6X6X6X6X6X6X6X6X6X6X6X6X6X6X6X6X6X6X",
"6X6X6X6X6X6X6X6X6X6X6X6X6X6X6X6X6X6X6X6X    . # % 6 8 % % % # @ . 6X@ % % # .       6X6X6X6X6X6X6X6X6X6X6X6X6X6X6X6X6X6X6X6X6X6X",
"6X6X6X6X6X6X6X6X6X6X6X6X6X6X6X6X6X6X6X6X    X 6 u u l u u r 9 5 X   & r t 9 @               6X6X6X6X6X6X6X6X6X6X6X6X6X6X6X6X6X6X",
"6X6X6X6X6X6X6X6X6X6X6X6X6X6X6X6X6X6X6X6X    @ 9 z M N N M c x 7 # @ 6 u c u % .   . . .   .   6X6X6X6X6X6X6X6X6X6X6X6X6X6X6X6X6X",
"6X6X6X6X6X6X6X6X6X6X6X6X6X6X6X6X6X6X6X6X    . % 9 k v N B M z t 7 % r z v c r 6 1 6 % % & # @ . 6X6X6X6X6X6X6X6X6X6X6X6X6X6X6X6X",
"6X6X6X6X6X6X6X6X6X6X6X6X6X6X6X6X6X6X6X6X      . # 6 y M B N v z t r u c B v c l l l u u r 7 % .   6X6X6X6X6X6X6X6X6X6X6X6X6X6X6X",
"6X6X6X6X6X6X6X6X6X6X6X6X6X6X6X6X6X6X6X6X  . .   X 5 t M B B M v z z z c N N B N B v B c z t % X   6X6X6X6X6X6X6X6X6X6X6X6X6X6X6X",
"6X6X6X6X6X6X6X6X6X6X6X6X6X6X6X6X6X6X6X. # $ % 5 q 9 l N B B B M c v c N N B B B D D B B v u 6 .   6X6X6X6X6X6X6X6X6X6X6X6X6X6X6X",
"6X6X6X6X6X6X6X6X6X6X6X6X6X6X6X6X6X6X  . % 7 t u z c M N B B N N N v M N N N B B B v B B v z 6 X   6X6X6X6X6X6X6X6X6X6X6X6X6X6X6X",
"6X6X6X6X6X6X6X6X6X6X6X6X6X6X6X6X6X  . # 7 t z v M B N N N N N N N N N N N B N N N D v D D c r &     6X6X6X6X6X6X6X6X6X6X6X6X6X6X",
"6X6X6X6X6X6X6X6X6X6X6X6X6X6X6X6X. @ $ 6 t z v N B B B B N B B M c c v N N B N N B N N B N c u 6 % @ . 6X6X6X6X6X6X6X6X6X6X6X6X6X",
"6X6X6X6X6X6X6X6X6X6X6X6X6X6X6X  . % 9 t z c M B N B N N B B N M c z z v N B N B v D N B N M z t 7 % .   6X6X6X6X6X6X6X6X6X6X6X6X",
"6X6X6X6X6X6X6X6X6X6X6X6X6X6X6X  . 5 t z c N B N N N N M M M c z k k l v M N M B N N B B B M v z t % .   6X6X6X6X6X6X6X6X6X6X6X6X",
"6X6X6X6X6X6X6X6X6X6X6X6X6X6X    X 6 u M N B B B N N c c z c z z k k k k z c v M v N B B B B M v u 5 .   6X6X6X6X6X6X6X6X6X6X6X6X",
"6X6X6X6X6X6X6X6X6X6X6X6X6X6X6X  X 9 z N B B N B N M c l k k z k k k k k l c v M B B B B B N B v z 6 X   6X6X6X6X6X6X6X6X6X6X6X6X",
"6X6X6X6X6X6X6X6X6X6X6X6X6X6X6X  X 9 c B B N N N N M z k z c M N N N M N B C H H D B v M M B C N z 7 X   6X6X6X6X6X6X6X6X6X6X6X6X",
"6X6X6X6X6X6X6X6X6X6X6X6X6X6X6X  X 7 c B B N B B N v l k c H T ,.<.+.,.T ,.<.<.,.L M z c N B B B z q X   6X6X6X6X6X6X6X6X6X6X6X6X",
"6X6X6X6X6X6X6X6X6X6X6X6X6X6X6X  X e c B B B N B N v l l C R 6.0.8.8.6.6.0.0.0.6.R B z z v B C N z 9 X   6X6X6X6X6X6X6X6X6X6X6X6X",
"6X6X6X6X6X6X6X6X6X6X6X6X6X6X6X  X r c B B B N v v M v C U 3.w.e.e.e.e.e.e.a.a.w.<.U B M M M B B c 7 X   6X6X6X6X6X6X6X6X6X6X6X6X",
"6X6X6X6X6X6X6X6X6X6X6X6X6X6X6X  X 9 c B B B v c z N J <.3.0.q.e.e.q.q.e.a.a.a.a.0.<.R K M c v B c q X   6X6X6X6X6X6X6X6X6X6X6X6X",
"6X6X6X6X6X6X6X6X6X6X6X6X6X6X6X  X e z v B B v z z D E 3.w.w.q.p.e.q.a.a.a.w.w.w.w.0.6.U N l z v z 9 X   6X6X6X6X6X6X6X6X6X6X6X6X",
"6X6X6X6X6X6X6X6X6X6X6X6X6X6X6X  X 7 c v N N B B D H T 2.6.q.k.l.l.a.l.a.a.i.3.1.6.w.8.,.M k k k t 6 .   6X6X6X6X6X6X6X6X6X6X6X6X",
"6X6X6X6X6X6X6X6X6X6X6X6X6X6X    X 6 u c v B H U <.T K H +.9.N.OXOXOXC.,XM.7.+.K O.6.0.R M r 7 7 % # 6X6X6X6X6X6X6X6X6X6X6X6X6X6X",
"6X6X6X6X6X6X6X6X6X6X6X6X6X6X6X  . 5 r l c N J 2.6.<.V y A r.OX1X<X,X<X<XOX4.Z y S 3.8.<.C t 5 @ .   6X6X6X6X6X6X6X6X6X6X6X6X6X6X",
"6X6X6X6X6X6X6X6X6X6X6X6X6X6X6X  . $ 7 r x v U 5.i.4.V 9 n 7.$X3X3X1X2X2XOX@.n q V 5.j.9.O.G e +   6X6X6X6X6X6X6X6X6X6X6X6X6X6X6X",
"6X6X6X6X6X6X6X6X6X6X6X6X6X6X6X6X6XX # 5 r c I 9.m.t.A 9 n 7.$X2X2X1X2X2XOX7.b 9 G r.M.V.s.#.F ,   6X6X6X6X6X6X6X6X6X6X6X6X6X6X6X",
"6X6X6X6X6X6X6X6X6X6X6X6X6X6X6X6X6X    # 9 M E d.V.s...f Z r.$X2X2X1X1X3XoX7.Z f Y s.%X3X%Xf.{ 0   6X6X6X6X6X6X6X6X6X6X6X6X6X6X6X",
"6X6X6X6X6X6X6X6X6X6X6X6X6X6X6X6X6X    # u J 4.c.$Xv.@...+.s.$X1X1X1X1X1X%Xy.+...@.b.1X3X,Xc.Y 0   6X6X6X6X6X6X6X6X6X6X6X6X6X6X6X",
"6X6X6X6X6X6X6X6X6X6X6X6X6X6X6X6X6X    % m <.i.B.&X$Xx.s.s.oX&X1X1X*X1X1X%XoXs.t.x.$X<X,XC.i.G 8   6X6X6X6X6X6X6X6X6X6X6X6X6X6X6X",
"6X6X6X6X6X6X6X6X6X6X6X6X6X6X6X6X6X6X  8 V 1.i.B.#X&X&X$X%X&X1X<X1X<X*X<X1X%X%X%X<X,X#XN.g.1.V <   6X6X6X6X6X6X6X6X6X6X6X6X6X6X6X",
"6X6X6X6X6X6X6X6X6X6X6X6X6X6X6X6X6X6X  < m P 2.t.N.#X<X2X3X2X1X1X*X1X1X*X*X2X2X2X<X,XM.t.O.K f %   6X6X6X6X6X6X6X6X6X6X6X6X6X6X6X",
"6X6X6X6X6X6X6X6X6X6X6X6X6X6X6X6X6X6X6X6X8 i A <.g.B.,X<X2X1X1X<X1X1X1X1X1X2X2X1X,XB.p.+.Z r 8 6X6X6X6X6X6X6X6X6X6X6X6X6X6X6X6X6X",
"6X6X6X6X6X6X6X6X6X6X6X6X6X6X6X6X6X6X6X6X    9 G 5.h.B.#X<X,X<X<X<X,X<X%X&X<X&X#XV.h.3.A q     6X6X6X6X6X6X6X6X6X6X6X6X6X6X6X6X6X",
"6X6X6X6X6X6X6X6X6X6X6X6X6X6X6X6X6X6X6X6X    % b T 5.h.M.OXB.B.N.B.B.N.B.B.B.B.N.g.3.I b #   6X6X6X6X6X6X6X6X6X6X6X6X6X6X6X6X6X6X",
"6X6X6X6X6X6X6X6X6X6X6X6X6X6X6X6X6X6X6X6X    # 9 N T 5.h.l.l.l.k.k.k.k.k.k.l.l.h.3.I M 9 @     6X6X6X6X6X6X6X6X6X6X6X6X6X6X6X6X6X",
"6X6X6X6X6X6X6X6X6X6X6X6X6X6X6X6X6X6X6X6X    X 5 t C R 8.q.p.i.i.i.i.i.i.i.p.q.6.O.B t 5 .     6X6X6X6X6X6X6X6X6X6X6X6X6X6X6X6X6X",
"6X6X6X6X6X6X6X6X6X6X6X6X6X6X6X6X6X6X6X6X    . % r v J ,.3.t.y.y.y.y.y.y.y.9.1.<.J z r % .     6X6X6X6X6X6X6X6X6X6X6X6X6X6X6X6X6X",
"6X6X6X6X6X6X6X6X6X6X6X6X6X6X6X6X6X6X6X6X    . 5 t z v L +.-.].'.'.'.'.'.].-.+.K M z r 5 .     6X6X6X6X6X6X6X6X6X6X6X6X6X6X6X6X6X",
"6X6X6X6X6X6X6X6X6X6X6X6X6X6X6X6X6X6X6X6X    @ 5 t z c N ..=./.{.=X^.{.=X'.=...B z z t 5 .     6X6X6X6X6X6X6X6X6X6X6X6X6X6X6X6X6X",
"6X6X6X6X6X6X6X6X6X6X6X6X6X6X6X6X6X6X6X6X    . 7 u z v D ..=./.=X=X-X;X-X.X>...N v z k 5 .     6X6X6X6X6X6X6X6X6X6X6X6X6X6X6X6X6X",
"6X6X6X6X6X6X6X6X6X6X6X6X6X6X6X6X6X6X6X6X    X 9 l v v v G =.^.-X;X>X>X>X;Xu.o.B v v l 7 .     6X6X6X6X6X6X6X6X6X6X6X6X6X6X6X6X6X",
"6X6X6X6X6X6X6X6X6X6X6X6X6X6X6X6X6X6X6X6X, 1 e m S H H D [ ;./. X:X:X>X>X;Xu.X.B B J S n e 1 , 6X6X6X6X6X6X6X6X6X6X6X6X6X6X6X6X6X",
"6X6X6X6X6X6X6X6X6X6X6X6X6X6X6X6X6X6X6X0 g { o.#.4.2.L C [ *.!.(.(.|.|.|.(.:...D U 2.2.#.o.F F 1 6X6X6X6X6X6X6X6X6X6X6X6X6X6X6X6X",
"6X6X6X6X6X6X6X6X6X6X6X6X6X6X6X6X6X6X  w } d.b.n.b.d.O.A ] &.Q.W.)._.).).!.S.] H ,.i.b.OXv.r.F w   6X6X6X6X6X6X6X6X6X6X6X6X6X6X6X",
"6X6X6X6X6X6X6X6X6X6X6X6X6X6X6X6X6X    w o.oX3X4X1Xx.@.{ | S.T.R.R.R.R.R.T.S.| } @.b.1X4X2Xv.o.0   6X6X6X6X6X6X6X6X6X6X6X6X6X6X6X",
"6X6X6X6X6X6X6X6X6X6X6X6X6X6X6X6X6X    w o.$X5X5X3XoX>.&.S.F.R.R.P.L.P.R.R.F.` &.>.oX3X5X5XoXo.0     6X6X6X6X6X6X6X6X6X6X6X6X6X6X",
"6X6X6X6X6X6X6X6X6X6X6X6X6X6X6X6X6X    w o.n.2X3X*XXX~.K.P.T.T.P.D.J.D.P.R.R.T.!.[.+X*X4X1Xv.o.3   6X6X6X6X6X6X6X6X6X6X6X6X6X6X6X",
"6X6X6X6X6X6X6X6X6X6X6X6X6X6X6X6X6X    0 F d.v.+X+X=X(.W.E.R.T.D._ ( Z.D.T.R.E.W.}.-X+XoXv.7.F 1   6X6X6X6X6X6X6X6X6X6X6X6X6X6X6X",
"6X6X6X6X6X6X6X6X6X6X6X6X6X6X6X6X6X6X* , f F  ./.[.}.).W.E.Y.L.Z.Q W Q Z.L.E.E.E.).}.[.:. .F e , O 6X6X6X6X6X6X6X6X6X6X6X6X6X6X6X",
"6X6X6X6X6X6X6X6X6X6X6X6X6X6X6X6X6X; = ; O , d ` K.W.W.T.T.L.Z.Q a - a / Z.D.T.R.Q.Q.K.` h , + ; = 6X6X6X6X6X6X6X6X6X6X6X6X6X6X6X",
"6X6X6X6X6X6X6X6X6X6X6X6X6X6X6X6X6X; ; *     4 ! A.F.K.G.J._ / W - : p W / ' A.K.G.K.' ! -     * ; ; 6X6X6X6X6X6X6X6X6X6X6X6X6X6X",
"6X6X6X6X6X6X6X6X6X6X6X6X6X6X6X6X; ; ; * o   * d ^ ) | | ) ~ a p * : - p s ~ ) | ) ) ^ d O   o = ; ; ; 6X6X6X6X6X6X6X6X6X6X6X6X6X",
"6X6X6X6X6X6X6X6X6X6X6X6X6X6X6X; ; ; ; * O   + q f n Z A f 0 * : * - * : * 0 g Z Z n f 8 +   o = ; ; ; ; 6X6X6X6X6X6X6X6X6X6X6X6X",
"6X6X6X6X6X6X6X6X6X6X6X6X6X6X; ; ; ; ; ; O o X 5 9 t l b r %   + * = * o + & i k l t 9 % + o O ; ; ; ; ; 6X6X6X6X6X6X6X6X6X6X6X6X",
"6X6X6X6X6X6X6X6X6X6X6X6X6X6X; ; ; ; ; ; * * + > < q q q 8 > o * = = = = + > 8 q q q 1 > * * = = ; ; ; ; 6X6X6X6X6X6X6X6X6X6X6X6X",
"6X6X6X6X6X6X6X6X6X6X6X6X6X6X6X; ; ; ; ; ; ; ; 2 2 2 2 2 2 ; ; ; ; ; ; = ; 2 2 2 2 2 ; ; ; = ; ; ; ; ; ; 6X6X6X6X6X6X6X6X6X6X6X6X",
"6X6X6X6X6X6X6X6X6X6X6X6X6X6X6X; ; ; ; ; ; ; ; ; ; ; ; ; ; ; ; ; ; ; ; ; ; ; ; ; ; ; ; ; ; ; ; 2 ; ; ; ; 6X6X6X6X6X6X6X6X6X6X6X6X",
"6X6X6X6X6X6X6X6X6X6X6X6X6X6X6X6X6X; ; ; ; ; ; ; ; ; - ; ; ; ; ; ; ; ; ; ; ; - ; ; ; ; ; ; ; ; ; ; ; 6X6X6X6X6X6X6X6X6X6X6X6X6X6X",
"6X6X6X6X6X6X6X6X6X6X6X6X6X6X6X6X6X; ; ; ; ; ; ; ; ; = ; ; ; ; ; ; ; ; ; ; ; ; ; ; ; ; ; ; ; ; ; ; ; 6X6X6X6X6X6X6X6X6X6X6X6X6X6X",
"6X6X6X6X6X6X6X6X6X6X6X6X6X6X6X6X6X6X; ; ; ; ; ; ; ; ; ; ; ; ; ; ; ; ; ; ; ; ; ; ; ; ; ; ; ; ; ; ; 6X6X6X6X6X6X6X6X6X6X6X6X6X6X6X"
};
