/* XPM */
static char *result[] = {
/* columns rows colors chars-per-pixel */
"64 64 212 2 ",
"   c #010101",
".  c #090603",
"X  c #0E0905",
"o  c #04050B",
"O  c #0D0A0B",
"+  c #08080D",
"@  c #120B07",
"#  c #150E0A",
"$  c #190F09",
"%  c #1C0F05",
"&  c #1C120B",
"*  c #060A13",
"=  c #0A0C15",
"-  c #0C0E19",
";  c #000710",
":  c #120E11",
">  c #0F1017",
",  c #161314",
"<  c #1C1511",
"1  c #1E1A16",
"2  c #111119",
"3  c #23160D",
"4  c #24180E",
"5  c #2A1A0F",
"6  c #221612",
"7  c #241A14",
"8  c #2C1C11",
"9  c #231D1A",
"0  c #281C18",
"q  c #331F12",
"w  c #26221C",
"e  c #2A211B",
"r  c #342013",
"t  c #3C2516",
"y  c #33241C",
"u  c #3D291A",
"i  c #3E2718",
"p  c #141928",
"a  c #0C1E3C",
"s  c #0E1A30",
"d  c #1E232F",
"f  c #3B2B22",
"g  c #312B26",
"h  c #2B2D39",
"j  c #372D2C",
"k  c #402717",
"l  c #412817",
"z  c #442B1A",
"x  c #492E1B",
"c  c #4D321E",
"v  c #52351E",
"b  c #56361B",
"n  c #442E22",
"m  c #4E3322",
"M  c #4A362B",
"N  c #46342A",
"B  c #523621",
"V  c #563923",
"C  c #593B24",
"Z  c #543B2A",
"A  c #5C3E2A",
"S  c #4E3C32",
"D  c #453B34",
"F  c #503D36",
"G  c #4D423C",
"H  c #5C4333",
"J  c #54433A",
"K  c #56463A",
"L  c #5E422A",
"P  c #63432D",
"I  c #65452B",
"U  c #654432",
"Y  c #6C4A33",
"T  c #684B38",
"R  c #734E36",
"E  c #744F39",
"W  c #755139",
"Q  c #7C553E",
"!  c #7E563C",
"~  c #182A49",
"^  c #0C2446",
"/  c #243757",
"(  c #323850",
")  c #1C386A",
"_  c #1C3D75",
"`  c #394158",
"'  c #294677",
"]  c #3F547A",
"[  c #3A4A69",
"{  c #594C47",
"}  c #5C5144",
"|  c #444858",
" . c #554F4E",
".. c #614F45",
"X. c #614F48",
"o. c #665648",
"O. c #755B45",
"+. c #7D5B45",
"@. c #795946",
"#. c #75624F",
"$. c #7A6856",
"%. c #6C6050",
"&. c #444C62",
"*. c #415579",
"=. c #545E77",
"-. c #675F65",
";. c #6D6566",
":. c #786867",
">. c #6D6872",
",. c #676672",
"<. c #7B7373",
"1. c #7E757F",
"2. c #845C43",
"3. c #885F46",
"4. c #82644C",
"5. c #8D644A",
"6. c #896448",
"7. c #91664B",
"8. c #956A4E",
"9. c #9A6C4F",
"0. c #8B6B58",
"q. c #9B6E52",
"w. c #946B51",
"e. c #99745A",
"r. c #857059",
"t. c #A37356",
"y. c #A67659",
"u. c #AC7B5D",
"i. c #A6785C",
"p. c #B17E5F",
"a. c #8B7A66",
"s. c #967B66",
"d. c #967A74",
"f. c #A77D63",
"g. c #AA7D61",
"h. c #B37F61",
"j. c #9A846C",
"k. c #94816B",
"l. c #9C8971",
"z. c #8B827C",
"x. c #A78267",
"c. c #B38263",
"v. c #B28768",
"b. c #B48A6B",
"n. c #A48D74",
"m. c #AD8E73",
"M. c #A5937A",
"N. c #AA967B",
"B. c #AC997F",
"V. c #AB9275",
"C. c #B59274",
"Z. c #BB9A7B",
"A. c #B6967A",
"S. c #1C4582",
"D. c #264D89",
"F. c #335489",
"G. c #224B92",
"H. c #295497",
"J. c #355D99",
"K. c #325894",
"L. c #275BA7",
"P. c #315EA0",
"I. c #3764A5",
"U. c #2A63B5",
"Y. c #2B67BA",
"T. c #2864B9",
"R. c #3B6EB6",
"E. c #3E71BA",
"W. c #415A83",
"Q. c #556688",
"!. c #767B92",
"~. c #797D94",
"^. c #777F9A",
"/. c #797F98",
"(. c #6D768F",
"). c #5676AA",
"_. c #627CA5",
"`. c #2868C0",
"'. c #847E8B",
"]. c #827A85",
"[. c #7C829B",
"{. c #76809D",
"}. c #7C88A6",
"|. c #6687B8",
" X c #82879C",
".X c #9E948B",
"XX c #AE9A80",
"oX c #A59989",
"OX c #B29E83",
"+X c #BE9F81",
"@X c #B5A186",
"#X c #BBA285",
"$X c #BCA68A",
"%X c #BEA98C",
"&X c #868EA5",
"*X c #8B8FA3",
"=X c #9699A7",
"-X c #8A98B3",
";X c #8790A5",
":X c #9EA2B1",
">X c #93A1BA",
",X c #A6AAB7",
"<X c #C1AB8D",
"1X c #C4A889",
"2X c #C2AE91",
"3X c #C5B193",
"4X c #C9B394",
"5X c #CDB899",
"6X c #CBB698",
"7X c #D4BD9D",
"8X c #D7C09F",
"9X c #509B66",
/* pixels */
"9X9X9X9X9X9X9X9X9X9X9X9X9X9X9X9X9X9X9X9X9X9X9X9X9X9X9X9X9X9X9X9X9X9X9X9X9X9X9X9X9X9X9X9X9X9X9X9X9X9X9X9X9X9X9X9X9X9X9X9X9X9X9X9X",
"9X9X9X9X9X9X9X9X9X9X9X9X9X9X9X9X9X9X9X9X9X9X9X9X9X9X9X9X9X9X9X9X9X9X9X9X9X9X9X9X9X9X9X9X9X9X9X9X9X9X9X9X9X9X9X9X9X9X9X9X9X9X9X9X",
"9X9X9X9X9X9X9X9X9X9X9X9X9X9X9X9X9X9X9X9X9X9X9X9X9X9X9X9X9X9X9X9X9X9X9X9X9X9X9X9X9X9X9X9X9X9X9X9X9X9X9X9X9X9X9X9X9X9X9X9X9X9X9X9X",
"9X9X9X9X9X9X9X9X9X9X9X9X9X9X9X9X9X9X                    9X9X9X9X9X        9X9X9X9X9X9X9X9X9X9X9X9X9X9X9X9X9X9X9X9X9X9X9X9X9X9X9X",
"9X9X9X9X9X9X9X9X9X9X9X9X9X9X9X9X9X9X      . . . . . .   . 9X9X9X. .         9X9X9X9X9X9X9X9X9X9X9X9X9X9X9X9X9X9X9X9X9X9X9X9X9X9X",
"9X9X9X9X9X9X9X9X9X9X9X9X9X9X9X9X9X    . # & < 7 & & & $ @ . 9XX & & $ .       9X9X9X9X9X9X9X9X9X9X9X9X9X9X9X9X9X9X9X9X9X9X9X9X9X",
"9X9X9X9X9X9X9X9X9X9X9X9X9X9X9X9X9X    X 4 t z z z i r 8 3 X   $ r y 8 @               9X9X9X9X9X9X9X9X9X9X9X9X9X9X9X9X9X9X9X9X9X",
"9X9X9X9X9X9X9X9X9X9X9X9X9X9X9X9X9X    @ 4 z v v V m c u 5 & @ 3 t c u & .   . . . . X X 9X9X9X9X9X9X9X9X9X9X9X9X9X9X9X9X9X9X9X9X",
"9X9X9X9X9X9X9X9X9X9X9X9X9X9X9X9X9X    . & 8 u c V C B c t 5 & 8 x B x e & & & 4 4 1 & & . 9X9X9X9X9X9X9X9X9X9X9X9X9X9X9X9X9X9X9X",
"9X9X9X9X9X9X9X9X9X9X9X9X9X9X9X9X9X      . X 1 u B C V B c t r t c V x t r r u z x z u 4 X   9X9X9X9X9X9X9X9X9X9X9X9X9X9X9X9X9X9X",
"9X9X9X9X9X9X9X9X9X9X9X9X9X9X9X9X9X. . . . X & t m C C V c c z c c v v x z c v v V v v r & X . 9X9X9X9X9X9X9X9X9X9X9X9X9X9X9X9X9X",
"9X9X9X9X9X9X9X9X9X9X9X9X9X9X9X9X  X & & & 4 r u V C C V V c c m V L v c c v v L L L L u 8 1 $ . 9X9X9X9X9X9X9X9X9X9X9X9X9X9X9X9X",
"9X9X9X9X9X9X9X9X9X9X9X9X9X9X9X  . & 5 r u u c v V V C C V B b V V L v v V V C C V V V v c u 4 X   9X9X9X9X9X9X9X9X9X9X9X9X9X9X9X",
"9X9X9X9X9X9X9X9X9X9X9X9X9X9X  . @ 4 t c c V C C V V V V C V V V V v L v C V V V V V C C C c r $ X . 9X9X9X9X9X9X9X9X9X9X9X9X9X9X",
"9X9X9X9X9X9X9X9X9X9X9X9X9X. @ & 4 r x v C C C C C C C V V C C C V L v V C L v C V V C C C V u r 4 $ X 9X9X9X9X9X9X9X9X9X9X9X9X9X",
"9X9X9X9X9X9X9X9X9X9X9X9X  . $ 8 t x c v C C C C v V C V V C V V V V v L V V V C V V V C C V V c u 4 X   9X9X9X9X9X9X9X9X9X9X9X9X",
"9X9X9X9X9X9X9X9X9X9X9X9X  . & r z v B C C C V B B B C V V C C V C C B B B B B B B B V V V C C C x 4 X   9X9X9X9X9X9X9X9X9X9X9X9X",
"9X9X9X9X9X9X9X9X9X9X9X9X  . & r z v V C C C V v x v b V V V V V B C B m c x x x c b V V V C A C x 7 X   9X9X9X9X9X9X9X9X9X9X9X9X",
"9X9X9X9X9X9X9X9X9X9X9X9X  . & r z v b C C V B x z x c V C V V V C C v x z l l z x V C C V C C C x 4 X   9X9X9X9X9X9X9X9X9X9X9X9X",
"9X9X9X9X9X9X9X9X9X9X9X9X  . & r z x B B B B c x z z c V C C C C C B v z l z m C A P I A C b V C c r $ . . 9X9X9X9X9X9X9X9X9X9X9X",
"9X9X9X9X9X9X9X9X9X9X9X9X  . 3 r z z x x c x x z l z v V C C V C C V c l k B U Q 3.3.! U B c c B m u 5 & @ . 9X9X9X9X9X9X9X9X9X9X",
"9X9X9X9X9X9X9X9X9X9X9X9X  . % r l z z z z z z t l z c B C C V C C V c z x P 3.q.y.t.8.Q B z c B V x u 5 $ .   9X9X9X9X9X9X9X9X9X",
"9X9X9X9X9X9X9X9X9X9X9X9X  . & r l z z z k k t k k z c V V C C B B v B B P ! 9.u.p.p.t.3.Y C V B v c z r & .   9X9X9X9X9X9X9X9X9X",
"9X9X9X9X9X9X9X9X9X9X9X9X  . & r l x x x z k t t t z c V C C V v x x A R 2.9.t.p.p.u.u.q.5.@.U B x z l r $ .   9X9X9X9X9X9X9X9X9X",
"9X9X9X9X9X9X9X9X9X9X9X9X  . & q z c B b x z k k z n B B C V V c x x P 2.9.y.u.g.g.g.u.y.t.5.E B z l k q & .   9X9X9X9X9X9X9X9X9X",
"9X9X9X9X9X9X9X9X9X9X9X9X  . & r z b B B v x x B C C B B B V V C C A U 2.5.t.f.h.b.b.c.f.w.+.A k q r t q $ .   9X9X9X9X9X9X9X9X9X",
"9X9X9X9X9X9X9X9X9X9X9X9X  . & r z B V C B v C R 2.E A x x c C I E 2.R P U +.d.Z.+XZ.m.e.E M y 3 3 5 t q & .   9X9X9X9X9X9X9X9X9X",
"9X9X9X9X9X9X9X9X9X9X9X9X  . & q z B B B B C I 2.9.3.Y B z c C E 7.q.@.n f ..s.1X4X2XN.$.M 6 @ . X 3 q q & .   9X9X9X9X9X9X9X9X9X",
"9X9X9X9X9X9X9X9X9X9X9X9X  . & q z x b B B V Y 5.t.q.2.P B c B E e.f.+.n 0 J j.%X5X4XXX$.n @     . $ 3 5 $ .   9X9X9X9X9X9X9X9X9X",
"9X9X9X9X9X9X9X9X9X9X9X9X  . 3 r z z z x B V Y 7.y.i.q.3.R B B Y e.m.r.n 0 J d.%X5X4XB.#.f @ .     . @ @ @ 9X9X9X9X9X9X9X9X9X9X9X",
"9X9X9X9X9X9X9X9X9X9X9X9X  . & q k k k z x B U 3.t.h.u.t.3.U Z ..j.B.a.J f K j.%X6X3XOX$.N 3 @           9X9X9X9X9X9X9X9X9X9X9X9X",
"9X9X9X9X9X9X9X9X9X9X9X9X  . # 3 q q k l z B I 3.y.h.h.g.q.2.O.r.N.@Xl.#...$.M.%X4X2XOXd.o.M 0 O         9X9X9X9X9X9X9X9X9X9X9X9X",
"9X9X9X9X9X9X9X9X9X9X9X9X9X9XX # % 5 t l l x A 2.t.p.p.p.f.s.j.M.@X%XXXl.k.l.@X%X3X2X%XXXl.$.G :     9X9X9X9X9X9X9X9X9X9X9X9X9X9X",
"9X9X9X9X9X9X9X9X9X9X9X9X9X9X9X  X 3 q k t z C Q q.u.u.u.v.A.+X$X%X%X%X$X$X%X%X%X2X%X%X<X$Xl.} 9     9X9X9X9X9X9X9X9X9X9X9X9X9X9X",
"9X9X9X9X9X9X9X9X9X9X9X9X9X9X9X  . $ 3 5 q l B U 2.7.t.u.b.C.+X1X<X3X3X3X3X3X3X%X2X<X<X<X1Xn.K 7   9X9X9X9X9X9X9X9X9X9X9X9X9X9X9X",
"9X9X9X9X9X9X9X9X9X9X9X9X9X9X9X9X9X. @ $ 5 t z B A R 7.u.c.b.b.A.#X<X3X3X3X3X%X3X2X3X<X1XZ.f.H 7   9X9X9X9X9X9X9X9X9X9X9X9X9X9X9X",
"9X9X9X9X9X9X9X9X9X9X9X9X9X9X9X9X9X9Xo X 3 q t t z A ! t.y.u.h.b.Z.$X$X1X%X%X$X$X1X1X#XA.f.6.Z <   9X9X9X9X9X9X9X9X9X9X9X9X9X9X9X",
"9X9X9X9X9X9X9X9X9X9X9X9X9X9X9X9X9X9X  . $ 3 5 q k c U ! 7.t.i.v.C.Z.Z.Z.Z.Z.Z.Z.+X+XC.e.@.H f &   9X9X9X9X9X9X9X9X9X9X9X9X9X9X9X",
"9X9X9X9X9X9X9X9X9X9X9X9X9X9X9X9X9X9X9X9XX @ $ 5 q z c A E 7.i.c.c.v.b.b.v.v.v.b.C.b.e.O.M 0 & 9X9X9X9X9X9X9X9X9X9X9X9X9X9X9X9X9X",
"9X9X9X9X9X9X9X9X9X9X9X9X9X9X9X9X9X9X9X9X    X 5 k l l z A 2.q.u.u.f.f.f.f.f.f.f.g.i.5.H 6 .   9X9X9X9X9X9X9X9X9X9X9X9X9X9X9X9X9X",
"9X9X9X9X9X9X9X9X9X9X9X9X9X9X9X9X9X9X9X9X    . 3 r l t t v Y 2.0.s.d.d.d.d.d.d.s.0.3.Y n @   9X9X9X9X9X9X9X9X9X9X9X9X9X9X9X9X9X9X",
"9X9X9X9X9X9X9X9X9X9X9X9X9X9X9X9X9X9X9X9X    X 3 t l l l x C Y O.:.].'.'.'.'.'.].;...m 5 @     9X9X9X9X9X9X9X9X9X9X9X9X9X9X9X9X9X",
"9X9X9X9X9X9X9X9X9X9X9X9X9X9X9X9X9X9X9X9X    X 3 r z u z z x C X.>.!.{./.!.^.'.!.-.F q 3 .     9X9X9X9X9X9X9X9X9X9X9X9X9X9X9X9X9X",
"9X9X9X9X9X9X9X9X9X9X9X9X9X9X9X9X9X9X9X9X    . 3 q l z c v b V X.>.!.{.^.^.&X&X X;.F q %       9X9X9X9X9X9X9X9X9X9X9X9X9X9X9X9X9X",
"9X9X9X9X9X9X9X9X9X9X9X9X9X9X9X9X9X9X9X9X    . 3 t z c m B b Z X.>.!.^././.&X=X*X<.F q % X     9X9X9X9X9X9X9X9X9X9X9X9X9X9X9X9X9X",
"9X9X9X9X9X9X9X9X9X9X9X9X9X9X9X9X9X9X9X9X, < w u B C C V V V A X.>.!././.&X=X,X=Xa.{ t 5 6 $ # 9X9X9X9X9X9X9X9X9X9X9X9X9X9X9X9X9X",
"9X9X9X9X9X9X9X9X9X9X9X9X9X9X9X9X9X9X9X1 j } o.#.#.O.T A B b A X.>.~.&X&X=X:X,X=X1.K n x B M u , 9X9X9X9X9X9X9X9X9X9X9X9X9X9X9X9X",
"9X9X9X9X9X9X9X9X9X9X9X9X9X9X9X9X9X9X  w } k.M.XXV.k.O.L B b C } >.~.&X=X:X,X,X=X>.F m P 2.@.Z <   9X9X9X9X9X9X9X9X9X9X9X9X9X9X9X",
"9X9X9X9X9X9X9X9X9X9X9X9X9X9X9X9X9X    w o.XX3X5X%XV.$.L b b V { ,._.}.}.>X>X>X}.>.F v R q.w.H <   9X9X9X9X9X9X9X9X9X9X9X9X9X9X9X",
"9X9X9X9X9X9X9X9X9X9X9X9X9X9X9X9X9X    w %.@X8X8X4XN.6.I b b V { =.).|.|.|.|.|.{.=.D B ! t.q.H <     9X9X9X9X9X9X9X9X9X9X9X9X9X9X",
"9X9X9X9X9X9X9X9X9X9X9X9X9X9X9X9X9X    e o.M.3X6X%Xn.#.I b b Z  .] I.R.R.E.E.E.I.[ D m R q.7.H &   9X9X9X9X9X9X9X9X9X9X9X9X9X9X9X",
"9X9X9X9X9X9X9X9X9X9X9X9X9X9X9X9X9X  o 9 { a.M.oX.Xz.;.} G G | &.K.L.U.U.Y.Y.Y.L.' h u A Q Q N <   9X9X9X9X9X9X9X9X9X9X9X9X9X9X9X",
"9X9X9X9X9X9X9X9X9X9X9X9X9X9X9X9X9X9X* , g G  .,.(.Q.W.*.*.*.] F.H.L.L.T.Y.Y.Y.L.' d < r n n e , + 9X9X9X9X9X9X9X9X9X9X9X9X9X9X9X",
"9X9X9X9X9X9X9X9X9X9X9X9X9X9X9X9X9X- = = @ , h / ' F.J.J.I.I.P.H.G.G.G.L.U.Y.Y.L.) p X . @ : 2 = = 9X9X9X9X9X9X9X9X9X9X9X9X9X9X9X",
"9X9X9X9X9X9X9X9X9X9X9X9X9X9X9X9X9X- - * o   * a ) ' K.J.H.H.D.S._ _ _ D.K.J.J.F./ 2         * = - - 9X9X9X9X9X9X9X9X9X9X9X9X9X9X",
"9X9X9X9X9X9X9X9X9X9X9X9X9X9X9X9X- - - *     o p h ( | &.[ / ~ ^ a a d / ` | &.` h =     o + * - - - - 9X9X9X9X9X9X9X9X9X9X9X9X9X",
"9X9X9X9X9X9X9X9X9X9X9X9X9X9X9X2 - - - * o o X 6 g N M S j 1 = ; ; * , e j M S M y @ o o + = - - - - - - 9X9X9X9X9X9X9X9X9X9X9X9X",
"9X9X9X9X9X9X9X9X9X9X9X9X9X9X- - - - - - + . O 3 8 t z z r & o       # 3 r k z z 0 # o o = - - - - - - - 9X9X9X9X9X9X9X9X9X9X9X9X",
"9X9X9X9X9X9X9X9X9X9X9X9X9X9X- - - - - = * * = , < 6 0 0 9 : ; o o + O , < 0 0 0 < = * * = - - - - - - - 9X9X9X9X9X9X9X9X9X9X9X9X",
"9X9X9X9X9X9X9X9X9X9X9X9X9X9X9X- - - - - = = = 2 2 2 2 2 2 - - - - = 2 2 2 2 2 - 2 - - - - - - - - - - - 9X9X9X9X9X9X9X9X9X9X9X9X",
"9X9X9X9X9X9X9X9X9X9X9X9X9X9X9X2 - - - - - - - - - - - - - - - - - - - - - - - - - - - - - - - - - - - - 9X9X9X9X9X9X9X9X9X9X9X9X",
"9X9X9X9X9X9X9X9X9X9X9X9X9X9X9X9X9X- - - - - - - - - - - - - - - - - - - - - - - = 2 - - - - 2 - - - 9X9X9X9X9X9X9X9X9X9X9X9X9X9X",
"9X9X9X9X9X9X9X9X9X9X9X9X9X9X9X9X9X- - - - - - - - - - - - - - - - - - - - - - - - - - - - - - - - - 9X9X9X9X9X9X9X9X9X9X9X9X9X9X",
"9X9X9X9X9X9X9X9X9X9X9X9X9X9X9X9X9X9X- - - - - - - - - - - - - - - - - - - - * - - - - - - - - - - 9X9X9X9X9X9X9X9X9X9X9X9X9X9X9X"
};
