/* XPM */
static char *result[] = {
/* columns rows colors chars-per-pixel */
"64 64 212 2 ",
"   c #010101",
".  c #090603",
"X  c #0E0905",
"o  c #04050B",
"O  c #0D0A0B",
"+  c #08080D",
"@  c #120B07",
"#  c #150E0A",
"$  c #190F09",
"%  c #1C0F05",
"&  c #1C120B",
"*  c #060A13",
"=  c #0A0C15",
"-  c #0C0E19",
";  c #000710",
":  c #120E11",
">  c #0F1017",
",  c #161314",
"<  c #1C1511",
"1  c #1E1A16",
"2  c #111119",
"3  c #23160D",
"4  c #24180E",
"5  c #2A1A0F",
"6  c #221612",
"7  c #241A14",
"8  c #2C1C11",
"9  c #231D1A",
"0  c #281C18",
"q  c #331F12",
"w  c #26221C",
"e  c #2A211B",
"r  c #342013",
"t  c #3C2516",
"y  c #33241C",
"u  c #3D291A",
"i  c #3E2718",
"p  c #141928",
"a  c #0C1E3C",
"s  c #0E1A30",
"d  c #1E232F",
"f  c #3B2B22",
"g  c #312B26",
"h  c #2B2D39",
"j  c #372D2C",
"k  c #402717",
"l  c #412817",
"z  c #442B1A",
"x  c #492E1B",
"c  c #4D321E",
"v  c #52351E",
"b  c #56361B",
"n  c #442E22",
"m  c #4E3322",
"M  c #4A362B",
"N  c #46342A",
"B  c #523621",
"V  c #563923",
"C  c #593B24",
"Z  c #543B2A",
"A  c #5C3E2A",
"S  c #4E3C32",
"D  c #453B34",
"F  c #503D36",
"G  c #4D423C",
"H  c #5C4333",
"J  c #54433A",
"K  c #56463A",
"L  c #5E422A",
"P  c #63432D",
"I  c #65452B",
"U  c #654432",
"Y  c #6C4A33",
"T  c #684B38",
"R  c #734E36",
"E  c #744F39",
"W  c #755139",
"Q  c #7C553E",
"!  c #7E563C",
"~  c #182A49",
"^  c #0C2446",
"/  c #243757",
"(  c #323850",
")  c #1C386A",
"_  c #1C3D75",
"`  c #394158",
"'  c #294677",
"]  c #3F547A",
"[  c #3A4A69",
"{  c #594C47",
"}  c #5C5144",
"|  c #444858",
" . c #554F4E",
".. c #614F45",
"X. c #614F48",
"o. c #665648",
"O. c #755B45",
"+. c #7D5B45",
"@. c #795946",
"#. c #75624F",
"$. c #7A6856",
"%. c #6C6050",
"&. c #444C62",
"*. c #415579",
"=. c #545E77",
"-. c #675F65",
";. c #6D6566",
":. c #786867",
">. c #6D6872",
",. c #676672",
"<. c #7B7373",
"1. c #7E757F",
"2. c #845C43",
"3. c #885F46",
"4. c #82644C",
"5. c #8D644A",
"6. c #896448",
"7. c #91664B",
"8. c #956A4E",
"9. c #9A6C4F",
"0. c #8B6B58",
"q. c #9B6E52",
"w. c #946B51",
"e. c #99745A",
"r. c #857059",
"t. c #A37356",
"y. c #A67659",
"u. c #AC7B5D",
"i. c #A6785C",
"p. c #B17E5F",
"a. c #8B7A66",
"s. c #967B66",
"d. c #967A74",
"f. c #A77D63",
"g. c #AA7D61",
"h. c #B37F61",
"j. c #9A846C",
"k. c #94816B",
"l. c #9C8971",
"z. c #8B827C",
"x. c #A78267",
"c. c #B38263",
"v. c #B28768",
"b. c #B48A6B",
"n. c #A48D74",
"m. c #AD8E73",
"M. c #A5937A",
"N. c #AA967B",
"B. c #AC997F",
"V. c #AB9275",
"C. c #B59274",
"Z. c #BB9A7B",
"A. c #B6967A",
"S. c #1C4582",
"D. c #264D89",
"F. c #335489",
"G. c #224B92",
"H. c #295497",
"J. c #355D99",
"K. c #325894",
"L. c #275BA7",
"P. c #315EA0",
"I. c #3764A5",
"U. c #2A63B5",
"Y. c #2B67BA",
"T. c #2864B9",
"R. c #3B6EB6",
"E. c #3E71BA",
"W. c #415A83",
"Q. c #556688",
"!. c #767B92",
"~. c #797D94",
"^. c #777F9A",
"/. c #797F98",
"(. c #6D768F",
"). c #5676AA",
"_. c #627CA5",
"`. c #2868C0",
"'. c #847E8B",
"]. c #827A85",
"[. c #7C829B",
"{. c #76809D",
"}. c #7C88A6",
"|. c #6687B8",
" X c #82879C",
".X c #9E948B",
"XX c #AE9A80",
"oX c #A59989",
"OX c #B29E83",
"+X c #BE9F81",
"@X c #B5A186",
"#X c #BBA285",
"$X c #BCA68A",
"%X c #BEA98C",
"&X c #868EA5",
"*X c #8B8FA3",
"=X c #9699A7",
"-X c #8A98B3",
";X c #8790A5",
":X c #9EA2B1",
">X c #93A1BA",
",X c #A6AAB7",
"<X c #C1AB8D",
"1X c #C4A889",
"2X c #C2AE91",
"3X c #C5B193",
"4X c #C9B394",
"5X c #CDB899",
"6X c #CBB698",
"7X c #D4BD9D",
"8X c #D7C09F",
"9X c #509B66",
/* pixels */
"9X9X9X9X9X9X9X9X9X9X9X9X9X9X9X9X9X9X9X9X9X9X9X9X9X9X9X9X9X9X9X9X9X9X9X9X9X9X9X9X9X9X9X9X9X9X9X9X9X9X9X9X9X9X9X9X9X9X9X9X9X9X9X9X",
"9X9X9X9X9X9X9X9X9X9X9X9X9X9X9X9X9X9X9X9X9X9X9X9X9X9X9X9X9X9X9X9X9X9X9X9X9X9X9X9X9X9X9X9X9X9X9X9X9X9X9X9X9X9X9X9X9X9X9X9X9X9X9X9X",
"9X9X9X9X9X9X9X9X9X9X9X9X9X9X9X9X9X9X9X9X9X9X9X9X9X9X9X9X9X9X9X9X9X9X9X9X9X9X9X9X9X9X9X9X9X9X9X9X9X9X9X9X9X9X9X9X9X9X9X9X9X9X9X9X",
"9X9X9X9X9X9X9X9X9X9X9X9X9X9X9X9X9X9X9X9X9X9X9X9X9X9X9X        9X9X9X9X9X                    9X9X9X9X9X9X9X9X9X9X9X9X9X9X9X9X9X9X",
"9X9X9X9X9X9X9X9X9X9X9X9X9X9X9X9X9X9X9X9X9X9X9X9X9X9X        . . 9X9X9X  .   . . . .         9X9X9X9X9X9X9X9X9X9X9X9X9X9X9X9X9X9X",
"9X9X9X9X9X9X9X9X9X9X9X9X9X9X9X9X9X9X9X9X9X9X9X9X9X      . $ & & @ 9X. @ # & & & 4 7 & # .     9X9X9X9X9X9X9X9X9X9X9X9X9X9X9X9X9X",
"9X9X9X9X9X9X9X9X9X9X9X9X9X9X9X9X9X9X9X9X9X              @ 8 t e &   X 3 r r i z u z r 3 X     9X9X9X9X9X9X9X9X9X9X9X9X9X9X9X9X9X",
"9X9X9X9X9X9X9X9X9X9X9X9X9X9X9X9X9X9X9X9X. X . . . .   . & u c u 3 X & 8 i c c V V V z 8 X     9X9X9X9X9X9X9X9X9X9X9X9X9X9X9X9X9X",
"9X9X9X9X9X9X9X9X9X9X9X9X9X9X9X9X9X9X9XX # 4 1 4 4 4 & & 8 x B x 8 & 5 t c v C C c u 8 & .     9X9X9X9X9X9X9X9X9X9X9X9X9X9X9X9X9X",
"9X9X9X9X9X9X9X9X9X9X9X9X9X9X9X9X9X9X  X 4 u z z z k q q t c B c i r t x c V C B u < @ .       9X9X9X9X9X9X9X9X9X9X9X9X9X9X9X9X9X",
"9X9X9X9X9X9X9X9X9X9X9X9X9X9X9X9X9X. . $ r c L V B B x z x B V v c z x m V L C v t & . . . . . 9X9X9X9X9X9X9X9X9X9X9X9X9X9X9X9X9X",
"9X9X9X9X9X9X9X9X9X9X9X9X9X9X9X9X. $ 4 8 z V V L C V B c c B C B c c c V V C C V u r 4 & & & X . 9X9X9X9X9X9X9X9X9X9X9X9X9X9X9X9X",
"9X9X9X9X9X9X9X9X9X9X9X9X9X9X9X  O 4 u x B V C C C C B B B V C B V V v C C C V v v c u u r 8 & .   9X9X9X9X9X9X9X9X9X9X9X9X9X9X9X",
"9X9X9X9X9X9X9X9X9X9X9X9X9X9X  X $ r c L C V C V V V V C V V C V V V C V C V V C V L V v x u 4 @ . . 9X9X9X9X9X9X9X9X9X9X9X9X9X9X",
"9X9X9X9X9X9X9X9X9X9X9X9X9X. & 4 r z V C C C C V C C C C C C B C C C V V V V C C L L v v v x r 4 $ @ . 9X9X9X9X9X9X9X9X9X9X9X9X9X",
"9X9X9X9X9X9X9X9X9X9X9X9X  X 4 u c v V C C V V V V V V C V C C V V C V C V C V V v V L v v v z u 8 $ .   9X9X9X9X9X9X9X9X9X9X9X9X",
"9X9X9X9X9X9X9X9X9X9X9X9X  X 5 c C L C V C V V v v v B B V C C C V V V V C B V B V V C C C B c z q & .   9X9X9X9X9X9X9X9X9X9X9X9X",
"9X9X9X9X9X9X9X9X9X9X9X9X  . 7 x C C C V v V v c x x x x v m B C C C V C B B v x v V V C C B b x r 3 .   9X9X9X9X9X9X9X9X9X9X9X9X",
"9X9X9X9X9X9X9X9X9X9X9X9X  X 8 x C L v C C C V c z z z z x v C C V V C V V v x x x B V C C B v z r & .   9X9X9X9X9X9X9X9X9X9X9X9X",
"9X9X9X9X9X9X9X9X9X9X9X  . $ 8 c V v V C L I L L C m z k z m B C C V C C B c z z z v B B B B x z q & .   9X9X9X9X9X9X9X9X9X9X9X9X",
"9X9X9X9X9X9X9X9X9X9X. @ & 5 i B B v x B U ! 6.2.Q Y m k z x V C V C V C B v z k z x x x x x x l r & .   9X9X9X9X9X9X9X9X9X9X9X9X",
"9X9X9X9X9X9X9X9X9X  . $ 5 i x B B x x V W 8.t.y.q.3.U x x c B C V V C C B v z k k k z z z l l l q 3 .   9X9X9X9X9X9X9X9X9X9X9X9X",
"9X9X9X9X9X9X9X9X9X  . % q z x b B B C Y 3.y.p.c.u.9.Q P B B B B V V C C V v z k k k k z x z z k q 3 .   9X9X9X9X9X9X9X9X9X9X9X9X",
"9X9X9X9X9X9X9X9X9X  . & q z x x C U ! 5.q.y.u.p.u.t.8.2.E C x x v V C C V x l t t t k z x x x z q & .   9X9X9X9X9X9X9X9X9X9X9X9X",
"9X9X9X9X9X9X9X9X9X  . & q k k l B E 7.t.i.u.g.g.u.u.i.q.2.P x x v V V C V c x z k k z x B B c z r & .   9X9X9X9X9X9X9X9X9X9X9X9X",
"9X9X9X9X9X9X9X9X9X    & q k r q k A @.w.i.v.b.b.v.g.e.5.+.U A C C V B v v V C C B c x c V B v z r & .   9X9X9X9X9X9X9X9X9X9X9X9X",
"9X9X9X9X9X9X9X9X9X  . & r t 5 & 6 q M E e.n.Z.1XA.x.+.T P E ! W I C m x x A E +.Y C v B V B B z q & .   9X9X9X9X9X9X9X9X9X9X9X9X",
"9X9X9X9X9X9X9X9X9X  . & q r 4 X X @ 6 M 4.B.1X3X$Xs.{ f m @.q.7.E C c z B Y 3.q.2.Y V V V B c z r & .   9X9X9X9X9X9X9X9X9X9X9X9X",
"9X9X9X9X9X9X9X9X9X  . $ 4 4 $ .     $ f $.XX4X5X%Xk.J 8 n +.x.q.E B B B P 2.q.t.5.Y b v v v x z r % .   9X9X9X9X9X9X9X9X9X9X9X9X",
"9X9X9X9X9X9X9X9X9X9X9X@ @ @ .     . @ f #.XX3X5X%Xk.J 0 N r.m.s.T m B Y 3.q.y.y.6.Y C v x x x z r 3 .   9X9X9X9X9X9X9X9X9X9X9X9X",
"9X9X9X9X9X9X9X9X9X9X9X9X          O 6 M $.B.3X5X%Xk.} u F a.XXj.O.B U 3.y.h.g.t.3.Y B x z k l k q & .   9X9X9X9X9X9X9X9X9X9X9X9X",
"9X9X9X9X9X9X9X9X9X9X9X9X        @ 0 M o.d.OX3X3X%XM.$...O.l.@XM.r.O.+.q.u.h.h.y.3.P v x l k r 8 3 # .   9X9X9X9X9X9X9X9X9X9X9X9X",
"9X9X9X9X9X9X9X9X9X9X9X9X9X9X    < D $.l.XX$X2X2X%XOXl.d.n.oX%XOXM.j.s.g.p.h.h.y.2.L x l z q 5 % @ X 9X9X9X9X9X9X9X9X9X9X9X9X9X9X",
"9X9X9X9X9X9X9X9X9X9X9X9X9X9X    1 { l.+X2X<X<X2X2X%X$X$X+X%X<X<X$X+XA.c.u.u.u.q.Q C k t k q 3 X   9X9X9X9X9X9X9X9X9X9X9X9X9X9X9X",
"9X9X9X9X9X9X9X9X9X9X9X9X9X9X9X  9 } n.1X2X2X2X2X2X3X3X3X3X3X2X%X$X+XA.b.u.t.7.! U B i q q 3 $ .   9X9X9X9X9X9X9X9X9X9X9X9X9X9X9X",
"9X9X9X9X9X9X9X9X9X9X9X9X9X9X9X  1 H i.Z.1X1X2X2X3X%X2X3X3X3X%X+XA.b.b.c.u.7.E L v x t 5 $ @ . 9X9X9X9X9X9X9X9X9X9X9X9X9X9X9X9X9X",
"9X9X9X9X9X9X9X9X9X9X9X9X9X9X9X  & Z 4.x.C.+X%X%X%X%X%X%X<X<X$X+Xb.u.u.y.q.! A z k t r 3 X   9X9X9X9X9X9X9X9X9X9X9X9X9X9X9X9X9X9X",
"9X9X9X9X9X9X9X9X9X9X9X9X9X9X9X  & f U +.s.V.+X+X+XA.A.A.+X+X+Xb.c.u.t.7.2.P m t 8 5 3 % .   9X9X9X9X9X9X9X9X9X9X9X9X9X9X9X9X9X9X",
"9X9X9X9X9X9X9X9X9X9X9X9X9X9X9X9X9X& 0 N @.f.b.b.v.v.v.v.b.h.b.h.h.g.7.R A m z q 5 & X X 9X9X9X9X9X9X9X9X9X9X9X9X9X9X9X9X9X9X9X9X",
"9X9X9X9X9X9X9X9X9X9X9X9X9X9X9X9X9X    7 A 7.g.g.f.f.g.g.f.f.f.g.i.t.2.A z k k k 4 X     9X9X9X9X9X9X9X9X9X9X9X9X9X9X9X9X9X9X9X9X",
"9X9X9X9X9X9X9X9X9X9X9X9X9X9X9X9X9X9X  @ z T 6.0.a.d.d.d.d.d.d.0.w.2.Y m t t t r 3 .     9X9X9X9X9X9X9X9X9X9X9X9X9X9X9X9X9X9X9X9X",
"9X9X9X9X9X9X9X9X9X9X9X9X9X9X9X9X9X    @ 8 m ..:.d.'.~.'.'.'.!.a.@.T C n l k k t 4 @     9X9X9X9X9X9X9X9X9X9X9X9X9X9X9X9X9X9X9X9X",
"9X9X9X9X9X9X9X9X9X9X9X9X9X9X9X9X9X    . & t S -.!./.[./.^.^.!.>.X.Z v z l l l t 4 @     9X9X9X9X9X9X9X9X9X9X9X9X9X9X9X9X9X9X9X9X",
"9X9X9X9X9X9X9X9X9X9X9X9X9X9X9X9X9X      % q F ;. X&X&X/.^.^.!.,.X.C b c c z k r %       9X9X9X9X9X9X9X9X9X9X9X9X9X9X9X9X9X9X9X9X",
"9X9X9X9X9X9X9X9X9X9X9X9X9X9X9X9X9X    . % q K <.=X=X X/./.^.!.>.X.C B v B c u r 3 .     9X9X9X9X9X9X9X9X9X9X9X9X9X9X9X9X9X9X9X9X",
"9X9X9X9X9X9X9X9X9X9X9X9X9X9X9X9X9X# $ 6 5 i G a.=X:X=X X[./.!.>.X.C b V C C L B u 0 1 , 9X9X9X9X9X9X9X9X9X9X9X9X9X9X9X9X9X9X9X9X",
"9X9X9X9X9X9X9X9X9X9X9X9X9X9X9X9X< f N m n z J d.:X,X:X*X*X&X~.:.X.A B B A T O.#.#.o.} j 9 9X9X9X9X9X9X9X9X9X9X9X9X9X9X9X9X9X9X9X",
"9X9X9X9X9X9X9X9X9X9X9X9X9X9X9X  < M 2.2.P N G >.=X,X,X:X=X&X~.>.X.A b B L @.s.V.XXM.k.} w   9X9X9X9X9X9X9X9X9X9X9X9X9X9X9X9X9X9X",
"9X9X9X9X9X9X9X9X9X9X9X9X9X9X9X  & H w.q.R B F >.&X>X>X-X-X}._.=.{ C b b P 4.V.<X5X3XN.%.w     9X9X9X9X9X9X9X9X9X9X9X9X9X9X9X9X9X",
"9X9X9X9X9X9X9X9X9X9X9X9X9X9X    < H q.t.! B S =._.|.|.|.|.).).=. .V b b I 4.V.3X8X8XOX%.w     9X9X9X9X9X9X9X9X9X9X9X9X9X9X9X9X9X",
"9X9X9X9X9X9X9X9X9X9X9X9X9X9X9X  < H 7.9.R B j *.I.E.).E.R.R.I.F. .Z v v L #.n.%X6X3XM.o.w     9X9X9X9X9X9X9X9X9X9X9X9X9X9X9X9X9X",
"9X9X9X9X9X9X9X9X9X9X9X9X9X9X9X  & N @.@.A k h ' L.T.`.T.U.T.I.F.[  .F G  .$.d..XoXM.a.{ 9     9X9X9X9X9X9X9X9X9X9X9X9X9X9X9X9X9X",
"9X9X9X9X9X9X9X9X9X9X9X9X9X9X9Xo , 0 N n r & d ' L.`.Y.T.U.L.L.H.F.] ] ] *.Q.Q.(.,. .G g , + 9X9X9X9X9X9X9X9X9X9X9X9X9X9X9X9X9X9X",
"9X9X9X9X9X9X9X9X9X9X9X9X9X9X9X- = > # @ . . s ) L.Y.Y.U.L.H.G.G.H.J.P.J.P.J.K.D./ d 1 > = - - 9X9X9X9X9X9X9X9X9X9X9X9X9X9X9X9X9X",
"9X9X9X9X9X9X9X9X9X9X9X9X9X9X- - * o o       - / F.J.J.K.D.' ) _ S.G.H.K.K.F.' ) a * .   = - - 9X9X9X9X9X9X9X9X9X9X9X9X9X9X9X9X9X",
"9X9X9X9X9X9X9X9X9X9X9X9X9X- - - - * o       = h | | &.` / a a a ^ ~ / [ &.&.( h p o   o = - - - 9X9X9X9X9X9X9X9X9X9X9X9X9X9X9X9X",
"9X9X9X9X9X9X9X9X9X9X9X9X- - - - - - - * o   # g M F M j y , * ; ; = p n S S f f 6 O   o = - - - - 9X9X9X9X9X9X9X9X9X9X9X9X9X9X9X",
"9X9X9X9X9X9X9X9X9X9X9X9X- - - - - - - * o o # 0 u z k q 6 @         & r z z t 8 3 O o o = - - - - - 9X9X9X9X9X9X9X9X9X9X9X9X9X9X",
"9X9X9X9X9X9X9X9X9X9X9X9X- - - - - - - - - o = < 0 0 0 6 , : o o + + , 1 0 0 9 < , O * = = - - - - - 9X9X9X9X9X9X9X9X9X9X9X9X9X9X",
"9X9X9X9X9X9X9X9X9X9X9X9X- - - > - - - - - - > > 2 2 > > > - - - - = = > 2 2 2 > 2 = = - - - - - - 9X9X9X9X9X9X9X9X9X9X9X9X9X9X9X",
"9X9X9X9X9X9X9X9X9X9X9X9X- - - - - - - - - - - - - - - - - - - - - - - - - - - - - - - - - - - - - 9X9X9X9X9X9X9X9X9X9X9X9X9X9X9X",
"9X9X9X9X9X9X9X9X9X9X9X9X9X9X- - - - - - - - - - - - - - - - - - - - - - - - - - - - - - - - - 9X9X9X9X9X9X9X9X9X9X9X9X9X9X9X9X9X",
"9X9X9X9X9X9X9X9X9X9X9X9X9X9X- - - - - - - - - - - - - - - - - - - - - - - - - - - - - - - - - 9X9X9X9X9X9X9X9X9X9X9X9X9X9X9X9X9X",
"9X9X9X9X9X9X9X9X9X9X9X9X9X9X9X- - - - - - - - - - - - * - - - - - - - - - - - - - - - - - - 9X9X9X9X9X9X9X9X9X9X9X9X9X9X9X9X9X9X"
};
