/* XPM */
static char *result[] = {
/* columns rows colors chars-per-pixel */
"64 64 185 2 ",
"   c #1D0C06",
".  c #1D0E0B",
"X  c #150D0E",
"o  c #1E110F",
"O  c #0C0C16",
"+  c #0C0E19",
"@  c #130F14",
"#  c #180F11",
"$  c #1B1011",
"%  c #15131B",
"&  c #1A1419",
"*  c #22120E",
"=  c #2A180E",
"-  c #28160E",
";  c #261610",
":  c #281711",
">  c #2C1A12",
",  c #251D1D",
"<  c #291C1C",
"1  c #261815",
"2  c #311D14",
"3  c #392316",
"4  c #33221A",
"5  c #3D261A",
"6  c #342116",
"7  c #181C2A",
"8  c #181924",
"9  c #2A1F21",
"0  c #1C2234",
"q  c #2A2225",
"w  c #352622",
"e  c #372924",
"r  c #3C2C26",
"t  c #342B2E",
"y  c #3B2E2A",
"u  c #242A3D",
"i  c #262735",
"p  c #382E31",
"a  c #3D3435",
"s  c #363039",
"d  c #3A343B",
"f  c #373037",
"g  c #432A1A",
"h  c #4A2F1E",
"j  c #4A301F",
"k  c #442E21",
"l  c #473123",
"z  c #4C3222",
"x  c #4A372E",
"c  c #513623",
"v  c #553926",
"b  c #5A3C25",
"n  c #553B29",
"m  c #593C28",
"M  c #423535",
"N  c #4D3A32",
"B  c #42393A",
"V  c #4B3F3F",
"C  c #533F34",
"Z  c #5F422C",
"A  c #554036",
"S  c #594337",
"D  c #5A4439",
"F  c #5F493C",
"G  c #55433D",
"H  c #65452D",
"J  c #6B4A32",
"K  c #634B3C",
"L  c #664731",
"P  c #714F35",
"I  c #745135",
"U  c #755338",
"Y  c #282E41",
"T  c #2B3145",
"R  c #2E354A",
"E  c #3A3946",
"W  c #333C54",
"Q  c #383F50",
"!  c #433D45",
"~  c #433E48",
"^  c #3C455E",
"/  c #3C4356",
"(  c #3C4661",
")  c #44414B",
"_  c #494348",
"`  c #494044",
"'  c #544645",
"]  c #564A4A",
"[  c #594C4D",
"{  c #544747",
"}  c #454553",
"|  c #484758",
" . c #4A4A5A",
".. c #474857",
"X. c #5A4F51",
"o. c #504F5C",
"O. c #5B545B",
"+. c #5A5257",
"@. c #6E5542",
"#. c #785D48",
"$. c #615554",
"%. c #6C5E59",
"&. c #7E624B",
"*. c #6E605C",
"=. c #70625D",
"-. c #444B63",
";. c #4B4E63",
":. c #444E6A",
">. c #494F68",
",. c #46516D",
"<. c #4B536B",
"1. c #4F5165",
"2. c #555462",
"3. c #54576A",
"4. c #55586A",
"5. c #5E5D6C",
"6. c #5B5864",
"7. c #475472",
"8. c #4E5976",
"9. c #4E5B7A",
"0. c #4D5671",
"q. c #545B74",
"w. c #585F79",
"e. c #605F6E",
"r. c #5D6374",
"t. c #5A627A",
"y. c #7A6B63",
"u. c #756862",
"i. c #626273",
"p. c #60657D",
"a. c #676877",
"s. c #75727B",
"d. c #78757F",
"f. c #8E7B6D",
"g. c #877569",
"h. c #917D6E",
"j. c #546180",
"k. c #5B6684",
"l. c #5D6A8C",
"z. c #606A87",
"x. c #646D8A",
"c. c #626780",
"v. c #697184",
"b. c #6D758D",
"n. c #67708C",
"m. c #626F91",
"M. c #657295",
"N. c #667599",
"B. c #687699",
"V. c #69799E",
"C. c #727F9E",
"Z. c #7A7780",
"A. c #6B7BA1",
"S. c #807E83",
"D. c #7D8498",
"F. c #7B8295",
"G. c #7383A6",
"H. c #8A8588",
"J. c #958F8F",
"K. c #97918F",
"L. c #838B9C",
"P. c #959191",
"I. c #9D9693",
"U. c #A19995",
"Y. c #8C95A4",
"T. c #8592AC",
"R. c #9398A6",
"E. c #8897B4",
"W. c #868FA0",
"Q. c #9AA3B5",
"!. c #9CA8BD",
"~. c #9EA2AC",
"^. c #A4A7AF",
"/. c #A5AAB3",
"(. c #ABADB3",
"). c #A6ADB9",
"_. c #AEB0B5",
"`. c #B0B2B6",
"'. c #9EACC2",
"]. c #ACB5C2",
"[. c #AFBBCB",
"{. c #B6BEC8",
"}. c #B9C0CA",
"|. c #BBC6D2",
" X c #509B66",
/* pixels */
" X X X X X X X X X X X X X X X X X X X X X X X X X X X X X X X X X X X X X X X X X X X X X X X X X X X X X X X X X X X X X X X X",
" X X X X X X X X X X X X X X X X X X X X X X X X X X X X X X X X X X X X X X X X X X X X X X X X X X X X X X X X X X X X X X X X",
" X X X X X X X X X X X X X X X X X X X X X X X X X X X X X X X X X X X X X X X X X X X X X X X X X X X X X X X X X X X X X X X X",
" X X X X X X X X X X X X X X X X X X X X X X X X X X X X X X X X X X X X X X X X X X X X X X X X X X X X X X X X X X X X X X X X",
" X X X X X X X X X. .                   . . . . * * . . * . . . . . . * * . . . . . . .         .         . .  X X X X X X X X X",
" X X X X X X X X* . ; * * * * * * . . * * * * * * * . * * o * o * * * o * * . ; * o * * o * * o * * * * * * * *  X X X X X X X X",
" X X X X X X X X; ; : > < < 9 9 9 9 9 < : : : : ; ; ; ; ; ; ; ; ; ; ; ; ; ; ; ; : : : 1 < 9 9 9 9 9 < < 1 > ; ;  X X X X X X X X",
" X X X X X X X: > 2 < w t s s E E d s t w < 2 2 2 2 2 2 2 2 2 2 2 2 2 2 2 2 2 2 2 2 2 w t s s E E s f t w < 2 > >  X X X X X X X",
" X X X X X* - = 2 5 r M ~ |  .1.>.;.~ ~ M k 5 5 5 5 5 5 2 g 5 5 5 5 5 g 5 5 5 5 3 5 k M ~ | ;.>.;.;.| ! M k 3 2 > - *  X X X X X",
" X X X X* * : 2 3 k N { 2.w.k.x.m.x.k.2.~ N j h k z l z z l z l l l l l z l z k z z N ~ 2.w.c.z.z.c.t.2.{ N k 3 2 : * .  X X X X",
" X X X X. * > 2 g z D +.a.b.C.G.C.C.b.i.$.C v c v m m v m m n m v v m v m v v v v m D $.i.b.C.C.C.C.M.a.$.C z g 2 : * .  X X X X",
" X X X X  * > 2 g m @.%.Z.L.E.E.E.T.L.Z.=.@.Z Z m Z Z Z H C Z Z Z Z Z Z Z Z Z Z m Z K *.Z.L.E.E.E.E.L.Z.%.@.b h 2 = * .  X X X X",
" X X X X. * : 5 h Z @.g.H.R.!.'.'.Q.R.H.y.@.J H H J J H L J L L J J L J L J H H H J U y.H.R.'.'.'.'.R.H.g.J b h 3 : . .  X X X X",
" X X X X. * : 2 c H #.g.K.^.].[.{.].^.K.g.#.P P P P P P U U U P P P P U P P P P P P #.g.K.^.].{.[.].^.K.g.I H c 3 : * .  X X X X",
" X X X X. * > 5 c J U f.U.`.{.|.|.{.(.I.f.g.U I U U U U U U U U U U U I U U U P P U g.f.U.(.{.|.|.{._.U.f.g.J c 5 > * .  X X X X",
" X X X X  * > 5 c J g.h.U.`.{.|.|.{.`.U.f.U U P P U U U U U U U U U U @.U U U U P U U f.U._.{.|.|.{.`.U.g.g.J c 5 > ;    X X X X",
" X X X X. * > 5 b H g.h.U.`.}.|.|.}.`.U.f.U I I I U U U U U U U U U U U U U U I U U &.f.U.`.{.|.|.{.`.U.f.&.H c g = * .  X X X X",
" X X X X. * > 5 c J U h.U.(.}.|.|.}.(.U.f.g.I P P U U U U U U I U U U U U I I I P U &.f.U.`.{.|.|.{.`.U.f.I P c g = * .  X X X X",
" X X X X. * > 3 b H g.f.U.`.{.}.}.{.`.I.g.U I I I I U U U I U U U U U U U U I I P I &.f.U._.{.|.|.{.`.U.g.g.J c 3 = *    X X X X",
" X X X X. * > g c H U f.U.`.{.}.|.}._.U.f.g.I I I I U U U U U U U U I U U U I I P U &.f.I._.{.|.|.{.`.U.g.g.J c g = *    X X X X",
" X X X X. * : g c J g.f.U._.{.|.}.{.`.I.f.I I I I I I U U U U U U I U U I U U I P U g.g.I._.{.|.|.{.`.U.h.&.J c 3 > o .  X X X X",
" X X X X. . > 3 c J U f.U.`.{.|.}.{.(.I.f.g.I I P P I U U U U U U U U U I I I I P I g.g.U._.{.{.|.{.`.U.h.&.J c g > * .  X X X X",
" X X X X. * > 5 c J g.h.U._.{.|.|.}.`.I.g.U I I P U U U U U U U U U U U I I I I P I U g.U._.{.|.{.{.`.U.h.&.K v 5 : *    X X X X",
" X X X X. * > 5 c J U h.U.`.}.|.|.}.`.I.h.g.I I U U U U U U U U U U U U I I I P P P g.g.U.`.}.|.|.{.`.U.h.&.J v g > * *  X X X X",
" X X X X. * : 5 c J g.g.U.`.{.|.|.}.`.U.g.U U I I U U U U U U U U U U U U U U I I I g.f.U.`.}.|.|.{.`.U.g.g.J c 5 > * .  X X X X",
" X X X X. * > 3 c J g.f.U._.{.|.|.}.`.U.g.g.U I I I U U U U U U U U I I U U I I I I U f.U.(.{.{.|.{._.U.f.#.J c 5 : * .  X X X X",
" X X X X. ; > 3 c L I g.I.^.].[.[.].^.K.g.#.P J J P I I P J P P I I I I P P I P J P g.g.K.^.].[.{.].^.K.g.U J c 2 > * .  X X X X",
" X X X X  * > 3 h m P &.S.Y.Q.'.'.Q.R.h.u.@.J H H H H H H H H H H H H H H H H H b H J =.h.R.Q.!.'.Q.R.S.g.U m h g : . .  X X X X",
" X X X X. * : 2 g c K %.s.L.T.E.T.T.S.Z.e.L m b b b b b b b m b m m m m b b b b b m K %.s.L.T.E.T.T.L.s.%.K b g 2 : ; .  X X X X",
" X X X X. * > 2 g c G $.a.b.C.C.C.C.b.a.$.C m v c b m b m m v m m n v m b b b c v m D $.i.b.C.C.C.C.b.a.$.D z g 2 ; * .  X X X X",
" X X X X. . 1 < k N ' O.i.x.B.A.A.N.x.i.O.! D Z Z K K ' K ' K K K D K D K C D C S C ! +.i.m.N.A.A.B.x.i.O.' N k 2 1 *    X X X X",
" X X X X  ; > w M { O.5.p.n.B.N.A.M.x.k.e.O.$.$.%.=.u.u.u.y.y.y.y.y.y.y.y.g.=.=.$.$.$.e.k.x.N.N.N.N.m.c.e.O._ M e > * .  X X X X",
" X X X X  * < t _ 2.r.x.x.M.N.V.V.N.M.x.t.r.r.s.H.H.P.P.P.K.P.P.P.P.K.K.P.K.H.S.s.a.r.k.x.M.N.N.N.N.M.m.x.r.2._ p < #    X X X X",
" X X X X  * < d | r.x.n.N.N.N.N.M.M.M.M.M.n.b.D.W.~./._./.(./.(././././.(./.^.Y.D.b.x.x.M.M.N.N.N.N.M.M.n.x.r.| s < ;    X X X X",
" X X X X  * < s | t.l.x.m.l.m.m.m.m.m.l.x.x.n.F.Y.Q.).).)././.Q./././.).).).Q.Y.F.n.x.z.z.m.m.m.m.m.M.x.m.x.q...s < *    X X X X",
" X X X X  * < t ! ;.8.t.t.k.k.k.k.k.k.9.q.4.r.v.F.W.Y.Y.W.W.L.L.L.L.L.Y.Y.R.L.C.v.r.4.q.w.j.k.k.k.k.k.j.t.4.;.) p < .    X X X X",
" X X X X  * 1 q p E ) o.<.0.8.q.9.9.7.;...} ..1.i.a.b.v.c.r.r.r.r.r.r.c.v.b.v.r.O. .)  .>.0.9.9.9.9.<.1.;.} ! p q 1 *    X X X X",
" X X X Xo * * > 4 y a ! } -.,.7.,.,.-./ B a a G  .3.0.<.( / / Q / / / ( <.3.<. .~ a a E } -.:.7.7.:.-.} ! a e 4 > ; * *  X X X X",
" X X X Xo * * * = 4 e d /  .9.( 7.,.-.) a y e d / -.( ( W Y u u 0 u Y W ^ -.-.) d y y a Q -.:.7.7.,.-./ a e 4 > ; * * .  X X X X",
" X X X$ o * * = = 6 w d / ,.9.9.9.8.<.} B r y A _ <.7.( R Y 0 0 0 0 Y R ( ,.<.} B k r M } 1.9.9.9.9.>.} d w 2 = - * * $ #  X X X",
"+ + @ # $ $ * - = 6 r B  .q.k.l.l.k.t.o.G y x G o.q.9.:.W Y 0 0 0 0 Y / ( 9.9.o.` x x V o.q.k.l.l.k.q. .B e 6 = * * o $ @ @ + + ",
"+ + O @ # $ * - = 4 y ` <.k.l.M.N.m.t.6._ A A { 5.k.k.8.( T Y 0 0 u R ^ 9.k.k.5.] C N ' 6.p.m.N.M.m.k.2._ y 6 = - * * # @ @ + + ",
"+ + + % $ $ * = = 4 y ) 4.z.M.V.V.N.x.5.] A A ] r.z.l.j.:.W R R R R W ( t.l.z.e.[ C C ] 5.x.N.V.V.N.l.3.) y 4 = - ; o # @ + + + ",
"+ + + # @ ; * * = 4 y _ 4.x.B.G.V.V.x.5.] A A X.5.x.M.l.9.( ( ( ^ ( ,.9.l.M.n.e.X.A A ] e.n.N.A.A.N.x.4._ y 4 = - * $ # @ + + + ",
"+ + + @ o o * - = 4 y _ 4.l.B.A.V.B.c.5.] G A ] e.x.N.M.l.t.9.8.9.9.t.l.m.N.x.i.[ A C [ 5.x.N.A.A.N.l.4._ y 4 > - * * # @ + + + ",
"+ + + @ @ o * - = 4 y _ 4.l.N.A.V.B.x.5.[ A A ] 5.z.M.N.m.l.l.l.l.l.l.M.N.M.z.5.] A C [ 5.z.N.V.A.N.x.3._ y 4 : - * # X @ @ + + ",
"+ + O # $ o * - = 6 y _ 3.c.B.V.V.B.x.5.] A A _ 6.a.z.x.m.x.l.x.l.x.x.x.l.x.p.6.{ C A [ 5.x.M.V.V.B.k.3._ y 6 = - * ; @ @ @ + + ",
"+ + @ @ @ * * - = 4 y _ 4.x.B.V.V.B.x.5.[ A N G X.6.e.r.r.e.e.r.e.i.e.r.r.5.6.X.G n C [ 5.x.B.V.V.M.x.4._ y 6 > = * # # % + + + ",
"+ + % @ @ * * - = 6 y _ 3.x.M.V.V.B.x.5.[ A x A S ] [ X.X.X.X.X.X.[ X.X.X.] ] G n n A [ 5.x.N.V.V.B.l.3._ y 4 = * * o $ @ + + + ",
"+ + + @ $ o * - > 4 y ` 3.k.B.A.V.B.x.5.[ A v c x A n A A A A A A A A A A A A n x x A [ 5.l.N.V.V.B.x.3._ y 4 = = * o $ @ + + + ",
"+ + + @ $ $ ; * = 4 y ) 3.l.B.V.V.M.x.r.[ A x c c c c x v v c c c c c c c x c c c c A [ e.x.N.A.V.B.k.4.) y 4 = * * $ @ @ @ + + ",
"+ + + @ @ @ $ o * > e ) 3.l.N.G.G.B.x.e.X.A c j c c c c j c c c c c c c c j c c c c A X.e.x.N.V.G.B.x.3.~ e > * * $ $ @ % + + + ",
"+ + + % O @ # $ * : q ! 2.x.V.G.A.V.x.e.[ A Z j c c c c c c c c c v c c c c c j c v A X.e.n.G.G.A.B.x.3.! w ; o $ # @ @ + O + + ",
"+ + + + + @ O X X * q E 1.k.N.V.G.B.x.5.[ A z c c j c v c c c v x j c c c c c c j c A X.5.x.M.V.V.B.k.1.d q ; X @ @ + + + + + + ",
"+ + + + + + + @ X o , s ..q.k.l.l.k.t.o._ N l l h l l l l l l l l l j l l l l l l l x _ O.t.k.l.l.k.t...s 9 $ X @ + + + + + + + ",
"+ + + + + + + @ @ # 1 i R ^ ,.7.<.:.-./ d y e 4 5 4 e w w 4 e w 4 e e 5 w r 4 e 4 5 y d / ( ,.,.,.,.^ R i & # @ O + + + + + + + ",
" X X X+ + + + O O @ % 7 i Y T R R T T u q q , , & , , , , , , , , , , , , , , , , , q i i T T R R R u 0 7 % @ + @ O + + +  X X X",
" X X X X+ + + + O O % % 8 8 7 7 7 7 7 8 8 % % + % % % % % % % + % % % % % % % % % + % % 8 7 7 7 7 7 7 8 % % @ + + O + +  X X X X",
" X X X X+ + + + + + + + + + + + O + + O O + + + + + + + + + + + + + + + + + + + + + + + O + + + + + + + + + + + + + + +  X X X X",
" X X X X X+ + + + + + + O O O + O O O O O + + + + + + + + + + + + + + + + + + + + + + O + O O O O + O O + + + + + + +  X X X X X",
" X X X X X X X X X X X+ O O O O + O O O + + + + + + + + + + + + + + + + + + + + + + + + O O O O O O O O O  X X X X X X X X X X X",
" X X X X X X X X X X X XO + O O + + + + + + + + + + + + + + + + + + + + + + + + + + + + + + O + O + O O  X X X X X X X X X X X X",
" X X X X X X X X X X X X+ + + + + + + + + + + + + + + + + + + + + + + + + + + + + + + + + + + + + + + +  X X X X X X X X X X X X",
" X X X X X X X X X X X X+ + + + + + + + + + + + + + + + + + + + + + + + + + + + + + + + + + + + + + + O  X X X X X X X X X X X X"
};
