/* XPM */
static char *result[] = {
/* columns rows colors chars-per-pixel */
"64 64 187 2 ",
"   c #080303",
".  c gray2",
"X  c #120D0D",
"o  c #0C0E19",
"O  c #090F10",
"+  c #091010",
"@  c #0D101F",
"#  c #0F191A",
"$  c gray12",
"%  c #1A1110",
"&  c #0F1126",
"*  c #10132A",
"=  c #121535",
"-  c #141836",
";  c #14173B",
":  c #14193C",
">  c #1A2D2F",
",  c #1E3A3B",
"<  c #1C3537",
"1  c #1B2E30",
"2  c #362C2C",
"3  c #2C3737",
"4  c #203B3A",
"5  c #171B46",
"6  c #181D46",
"7  c #181C4B",
"8  c #1A1D56",
"9  c #1A1D58",
"0  c #1D2455",
"q  c #1C235C",
"w  c #243F42",
"e  c #1F2561",
"r  c #222B65",
"t  c #242D6A",
"y  c #243169",
"u  c #27366E",
"i  c #2A3674",
"p  c #2A3A75",
"a  c #2D3A7A",
"s  c #792F5A",
"d  c #5C336C",
"f  c #473678",
"g  c #553772",
"h  c #6E3362",
"j  c #703F6A",
"k  c #254548",
"l  c #2C4C52",
"z  c #2F5154",
"x  c #3D595B",
"c  c #2D457B",
"v  c #2E497C",
"b  c #2A4075",
"n  c #31437E",
"m  c #345A66",
"M  c #3B6B6E",
"N  c #376568",
"B  c #3D6E72",
"V  c #3F6C7F",
"C  c #3F7276",
"Z  c #504B4B",
"A  c #655C5B",
"S  c #574379",
"D  c #7B5272",
"F  c #6A547C",
"G  c #5E6465",
"H  c #467A7E",
"J  c #417379",
"K  c #647D7F",
"L  c #8F304F",
"P  c #92304E",
"I  c #8F3150",
"U  c #84385A",
"Y  c #943B55",
"T  c #85506C",
"R  c #3D3D82",
"E  c #343D87",
"W  c #423F81",
"Q  c #334485",
"!  c #334A84",
"~  c #34448B",
"^  c #364B8B",
"/  c #394D8F",
"(  c #384086",
")  c #37558D",
"_  c #395C8D",
"`  c #365187",
"'  c #3A4E91",
"]  c #364E93",
"[  c #3C5394",
"{  c #3C5A94",
"}  c #3C5A99",
"|  c #3A6392",
" . c #3D669B",
".. c #3F6C80",
"X. c #3F69A2",
"o. c #40579A",
"O. c #425B9D",
"+. c #475C94",
"@. c #4D5088",
"#. c #436D89",
"$. c #4C7B83",
"%. c #42659B",
"&. c #436A9C",
"*. c #456998",
"=. c #596C97",
"-. c #44729E",
";. c #4C7E9A",
":. c #6D698A",
">. c #657E80",
",. c #435EA1",
"<. c #4462A2",
"1. c #446CA3",
"2. c #476EA8",
"3. c #486EA6",
"4. c #4574A4",
"5. c #4A74A3",
"6. c #467CA7",
"7. c #4C7CA4",
"8. c #4671AA",
"9. c #4973AA",
"0. c #477CAA",
"q. c #4A7DAD",
"w. c #587DA4",
"e. c #557EA6",
"r. c #477EB1",
"t. c #487DB1",
"y. c #4A858A",
"u. c #4F8B8F",
"i. c #538F9D",
"p. c #55969D",
"a. c #57999E",
"s. c #589B9F",
"d. c #508C8F",
"f. c #659498",
"g. c #4B82AD",
"h. c #4E81A5",
"j. c #5287A7",
"k. c #5184A9",
"l. c #528BAC",
"z. c #5A9DA3",
"x. c #5894AC",
"c. c #4C84B0",
"v. c #4E8AB3",
"b. c #518EB3",
"n. c #5594B3",
"m. c #5699B6",
"M. c #5A9DB4",
"N. c #579BB8",
"B. c #589DB8",
"V. c #5696B6",
"C. c #5DA4AA",
"Z. c #5BA1A7",
"A. c #5DA3B4",
"S. c #5FA9B6",
"D. c #5DA5B8",
"F. c #5FAAB9",
"G. c #61A8AE",
"H. c #64A6AC",
"J. c #61A7B6",
"K. c #62ADB6",
"L. c #62ADB8",
"P. c #6EAFB5",
"I. c #64B0B7",
"U. c #65B2B9",
"Y. c #6AB6BC",
"T. c #69BABE",
"R. c #6BB5B9",
"E. c #76B8BE",
"W. c #6ABBC1",
"Q. c #67B8C0",
"!. c #78BBC1",
"~. c #75BAC0",
"^. c #7FC1C7",
"/. c #8D8888",
"(. c #97A7A8",
"). c #81AFB3",
"_. c #82B1B4",
"`. c gray74",
"'. c #96C6CB",
"]. c #96CDD2",
"[. c #80C2C7",
"{. c #B8D4D6",
"}. c #AFDDE0",
"|. c #CAD5D5",
" X c #C0E3E6",
".X c #D6E9EB",
"XX c #509B66",
/* pixels */
"XXXXXXXXXXXXXXXXXXXXXXXXXXXXXXXXXXXXXXXXXXXXXXXXXXXXXXXXXXXXXXXXXXXXXXXXXXXXXXXXXXXXXXXXXXXXXXXXXXXXXXXXXXXXXXXXXXXXXXXXXXXXXXXX",
"XXXXXXXXXXXXXXXXXXXXXXXXXXXXXXXXXXXXXXXXXXXXXXXXXXXXXXXXXXXXXXXXXXXXXXXXXXXXXXXXXXXXXXXXXXXXXXXXXXXXXXXXXXXXXXXXXXXXXXXXXXXXXXXX",
"XXXXXXXXXXXXXXXXXXXXXXXXXXXXXXXXXXXXXXXXXXXXXXXXXXXXXXXXXXXXXXXXXXXXXXXXXXXXXXXXXXXXXXXXXXXXXXXXXXXXXXXXXXXXXXXXXXXXXXXXXXXXXXXX",
"XXXXXXXXXXXXXXXXXXXXXXXXXXXXXXXXXXXXXXXXXXXXXXXXXXXXXXXXXXXXXXXXXXXXXXXXXXXXXXXXXXXXXXXXXXXXXXXXXXXXXXXXXXXXXXXXXXXXXXXXXXXXXXXX",
"XXXXXXXXXXXXXXXXXXXXXXXXXXXXXXXXXX0 9 9 8 8 0 8 9 9 9 9 9 9 9 9 9 9 9 q 9 9 9 9 q 9 9 9 9 9 0 XXXXXXXXXXXXXXXXXXXXXXXXXXXXXXXXXX",
"XXXXXXXXXXXXXXXXXXXXXXXXXXXXXXXXe q e q e e q q e q e q q q e q e q q q q q q e q q q q e q q q XXXXXXXXXXXXXXXXXXXXXXXXXXXXXXXX",
"XXXXXXXXXXXXXXXXXXXXXXXXXXXXXXXXy y y y y y y y y y y y y y y y y y y y y y y y y y y y y y y y XXXXXXXXXXXXXXXXXXXXXXXXXXXXXXXX",
"XXXXXXXXXXXXXXXXXXXXXXXXXXXXXXu b c c c c c c c c c v c v c c v c c c c c v c c c c v c v v v c u XXXXXXXXXXXXXXXXXXXXXXXXXXXXXX",
"XXXXXXXXXXXXXXXXXXXXXXXXXXq r b ` _ | | | | | | | | | | | { | | | | | _ _ | | | | | | | | | _ v p r q XXXXXXXXXXXXXXXXXXXXXXXXXX",
"XXXXXXXXXXXXXXXXXXXXXXXX9 q y c _ X.6.g.6.6.6.6.6.6.6.6.6.6.6.6.6.6.0.0.6.g.6.6.6.6.6.0.6.0.X.| v y q 9 XXXXXXXXXXXXXXXXXXXXXXXX",
"XXXXXXXXXXXXXXXXXXXXXXXXe r u ! | 0.v.v.b.v.b.v.v.b.b.b.b.b.b.b.b.b.b.b.b.b.b.b.b.b.v.b.b.v.6. .! u t e XXXXXXXXXXXXXXXXXXXXXXXX",
"XXXXXXXXXXXXXXXXXXXXXXt t i c ) X.c.v.V.N.N.N.D.N.N.N.N.N.M.N.N.N.N.N.N.N.N.N.N.N.N.N.N.V.v.g. .) c i t t XXXXXXXXXXXXXXXXXXXXXX",
"XXXXXXXXXXXXXXXXXXq r y a Q ^ { 4.g.v.N.D.D.D.F.D.F.D.D.A.D.D.D.D.D.D.D.D.D.D.F.D.D.D.N.N.v.c.4.{ ^ Q i t r q XXXXXXXXXXXXXXXXXX",
"XXXXXXXXXXXXXXXX9 q r i Q ^ } &.4.g.b.N.M.F.F.F.I.F.L.K.L.L.L.L.I.F.I.S.I.F.F.I.I.F.D.D.N.v.c.4.1.} / Q i r q 9 XXXXXXXXXXXXXXXX",
"XXXXXXXXXXXXXXXXq q r p Q o.<.9.g.v.n.M.D.F.I.U.I.I.I.U.I.U.U.I.I.I.U.U.I.I.I.U.U.I.I.F.N.V.v.q.9.<.{ Q p r q q XXXXXXXXXXXXXXXX",
"XXXXXXXXXXXXXXXX9 q r p ^ %.9.c.v.n.m.D.S.S.I.U.Y.Y.Y.Y.R.U.U.U.U.U.I.I.I.U.I.U.T.U.U.F.D.N.n.v.c.9.%.^ p r q 9 XXXXXXXXXXXXXXXX",
"XXXXXXXXXXXXXXXX9 q r p ) -.g.v.V.B.D.S.S.K.I.I.U.T.T.Y.U.U.U.I.U.I.U.U.I.I.K.I.Y.T.Y.U.L.D.B.V.b.q.1.) p r q 8 XXXXXXXXXXXXXXXX",
"XXXXXXXXXXXXXXXX9 q y n | 4.c.n.A.S.L.I.U.I.U.U.U.K.K.U.U.U.I.U.I.U.I.U.I.U.I.P.U.I.L.I.K.L.D.D.V.v.4._ c y e q XXXXXXXXXXXXXXXX",
"XXXXXXXXXXXXXXXXr r u v  .h.n.D.D.L.U.E.E.E.E.P.G.z.z.Z.G.K.U.U.U.U.R.Y.E.!.E.P.H.z.z.Z.G.K.L.F.D.n.g. .! u r r XXXXXXXXXXXXXXXX",
"XXXXXXXXXXXXXXt t i n _ -.l.M.D.F.I.Y.[.].].'.E.f.$.$.y.p.G.I.U.I.P.Y.^.].].'.E.f.$.H y.a.G.L.L.D.A.l.-.) c i t t XXXXXXXXXXXXXX",
"XXXXXXXXXXq r t i Q / *.h.x.S.F.K.I.E.].{. X{.(.K x l N y.Z.I.U.I.U.~.].}. X{.(.K x z N y.Z.I.U.F.F.x.k.*.^ Q i t r q XXXXXXXXXX",
"XXXXXXXXq q r i Q / %.5.l.A.F.I.K.U.!.]. X.X|.(.G 3 1 k C z.I.U.U.U.!.].|..X|.(.G 3 1 k C z.U.Y.Y.L.J.l.5.%./ Q i r q q XXXXXXXX",
"XXXXXXXXq q r i ! o.3.k.m.S.U.U.I.U.E.].{.|.`./.Z $ # , M z.U.Y.U.K.~.'.{.|.`./.Z > # , M a.U.T.T.U.S.n.e.3.+.Q i t q q XXXXXXXX",
"XXXXXXXX9 q r a ^ %.9.l.M.K.U.U.U.U.R._.(.(./.A 2 O O < M i.K.Q.Q.P.P.E.(.(./.A 2 X + < M a.R.W.W.U.K.M.b.9. .^ p r q 9 XXXXXXXX",
"XXXXXXXXq q t p ) 4.g.n.A.L.R.T.T.U.G.f.>.G Z 2 %   O < M p.I.W.W.L.H.f.K G Z 2 %   + 4 M z.R.W.T.Y.K.A.V.g.4.) p y q q XXXXXXXX",
"XXXXXXXX9 q y c | 4.b.V.A.K.U.Y.T.U.f.y.x 3 $ X   . # k B z.I.W.W.U.Z.$.Z 4 > X     # 4 J a.L.Y.T.U.K.D.m.c.6._ c y q 9 XXXXXXXX",
"XXXXXXXX9 e y v | 6.v.n.m.M.A.J.D.C.p.J l > # + + # > l H z.U.W.W.U.z.H z > # + + # > l J i.C.J.J.A.A.m.V.v.g._ c y e 9 XXXXXXXX",
"XXXXXXXX9 q y v | 6.v.b.l.k.j.k.j.j.h...m k 4 4 4 w l J u.C.U.W.W.U.Z.y.N l 4 < 4 w l N #.;.j.j.k.j.k.l.l.v.g.| v y q 9 XXXXXXXX",
"XXXXXXXX9 q y v | 6.c.g.4.&.*.*.*.*.*.....B M M J J H u.z.K.Y.Q.T.U.K.z.y.J B M J J J #.#.*.*.%.*.*.&.5.g.c.6.| v y q 9 XXXXXXXX",
"XXXXXXXX9 e y v | 6.c.0.1.{ [ / / [ { *.;.i.p.a.a.p.z.Z.G.K.I.I.I.I.K.C.Z.z.s.s.a.a.d.;.*.{ [ ^ / [ { <.6.g.6.| v y e 9 XXXXXXXX",
"XXXXXXXX9 q y v | 6.g.6.1.+.[ ^ ~ ~ / %.7.x.M.J.H.C.A.A.C.A.A.C.A.G.C.A.A.A.C.A.J.M.x.7.*./ ~ ~ ^ ' { 1.6.g.6.| v y q 9 XXXXXXXX",
"XXXXXXXX9 q y v | h.c.g.4.&.{ [ ~ ~ ~ +.1.k.l.x.x.l.l.l.l.k.k.l.k.k.l.l.l.l.l.n.n.l.k.&.+.~ ~ ~ [ +.&.6.g.g.g.| v y e 9 XXXXXXXX",
"XXXXXXXX9 q y v | 6.v.b.l.j.e.*.{ ~ ~ ] +.*.&.3.4.&.1.1.&.1.&.1.&.&.&.1.1.&.5.4.1.4.*.+.] ~ ~ [ *.7.j.l.n.c.g.| v y q 9 XXXXXXXX",
"XXXXXXXX9 q y c | 6.b.m.A.M.x.e.%.] ~ E ~ [ [ [ [ [ [ ' [ ' ' ' ) ' ' ' / [ [ ' [ [ ' ~ ~ ~ ' *.e.x.M.A.m.v.6._ v y q 8 XXXXXXXX",
"XXXXXXXXq q y c { 4.v.m.D.D.M.j.&.[ ] ~ ~ ~ E E R ( W f a @.W W @.a W W W W W R E E ~ E ~ ] [ &.j.M.J.D.V.c.4.{ v y q q XXXXXXXX",
"XXXXXXXX9 q t b ) 4.q.b.m.A.M.l.6.&.} ] ~ E E W f d d d d d d d d d d d d d d f R E E ~ ] [  .6.l.B.A.B.n.g.1.) b y q 9 XXXXXXXX",
"XXXXXXXX9 q t p ` %.8.t.n.V.V.b.g.4.&.} ] ~ E g h h s s s s s s s s s s s s h d f R ~ ] } 1.8.c.n.m.V.b.c.9. .^ p r q 9 XXXXXXXX",
"XXXXXXXX9 9 r a ! { 1.9.q.b.b.b.v.g.4.X.} ] a g h s L P L L L I I P P P P L U h g ( ^ } X.4.g.v.v.v.b.c.9.<.+.~ p t q q XXXXXXXX",
"XXXXXXXXq r r i E o.<.3.9.t.c.b.v.v.c.8. .[ @.S D U Y Y Y Y Y Y Y Y Y Y Y Y U j S @.[ X.X.c.v.v.v.c.g.9.2.,.[ Q i t e 9 XXXXXXXX",
"XXXXXXXX9 q r i Q ' ,.3.2.9.t.t.v.v.v.0.X.} +.@.F D T T T T T T T T T T T T D F @.+. .X.r.v.v.v.g.q.4.2.3.,.[ Q i e q q XXXXXXXX",
"XXXXXXXXq e t i Q o.O.3.<.1.2.0.c.c.v.c.0.8.5.=.=.:.:.:.:.:.:.:.:.:.:.:.:.:.:.=.=.5.4.q.c.v.v.t.0.2.3.3.<.O.o.Q p t q 9 XXXXXXXX",
"XXXXXXXX9 q r i Q o.o.,.,.,.<.2.r.c.v.v.c.r.q.q.e.e.w.w.w.w.w.w.e.e.w.w.w.w.e.e.q.q.g.c.v.v.c.0.2.<.,.,.,.o.o.Q i t q q XXXXXXXX",
"XXXXXXXX0 q r u n / ' +.o.,.,.1.8.c.c.c.c.c.g.c.c.c.c.c.c.c.c.c.c.c.g.c.c.c.c.c.c.c.c.c.c.c.t.9.3.,.o.o.o.o.^ n u r 0 8 XXXXXXXX",
"XXXXXXXXXX7 0 r i n ~ o.o.o.,.3.8.9.0.t.g.q.t.q.t.t.r.r.t.t.t.t.t.t.t.t.r.r.r.q.q.t.q.q.q.q.9.2.3.,.o.o./ ^ n p r 0 7 XXXXXXXXXX",
"XXXXXXXXXX: 7 0 r p a Q ' o.,.3.1.3.2.2.9.2.9.2.8.8.8.8.8.2.8.9.8.8.8.2.8.8.8.8.8.9.9.5.2.2.3.3.<.,.o.' Q a i r 0 6 5 XXXXXXXXXX",
"XXXXXXXXXXXX- 6 0 e y a ~ [ O.O.,.,.<.<.<.,.<.<.<.<.<.,.<.<.<.O.<.<.<.<.<.<.<.<.<.,.<.<.<.<.<.<.,.,.o.~ a t r 0 6 - XXXXXXXXXXXX",
"XXXXXXXXXXXX* - 6 9 e u Q / o.[ o.[ [ o.[ [ [ [ [ [ [ [ [ [ o.[ [ [ [ o.[ [ [ [ [ [ [ [ [ [ [ [ o.[ / a u r 0 5 - * XXXXXXXXXXXX",
"XXXXXXXXXXXX@ * - 6 0 r a n Q ~ ~ Q ! Q ~ Q Q ~ Q Q ^ Q Q ~ Q ~ Q ~ Q Q ~ Q Q ~ Q ~ Q ~ Q ~ Q ~ Q Q Q a r 0 5 ; * @ XXXXXXXXXXXX",
"XXXXXXXXXXXXo & * ; 6 q y u i a i i i i i i i i i i i i i i i i i i i i i i i i i i i i i i i i a i u r q 6 - * & o XXXXXXXXXXXX",
"XXXXXXXXXXXXo o o * - 6 0 r r r r r t r r r t r r r r r r r r r t r r r t r r r t r r r t r r r r r r 0 6 - * @ o o XXXXXXXXXXXX",
"XXXXXXo o o o XXXXo * : 5 8 0 q q q 0 9 9 q 9 q q 9 9 q 9 q 0 q 9 q 0 9 9 q 9 q 9 q 9 0 9 q q q q q 0 6 : * o XXXXo o o o XXXXXX",
"o o o o o o XXXXXXXX& * : 5 7 7 7 7 7 7 7 7 6 7 7 7 7 7 7 7 7 7 7 7 7 7 7 7 7 7 7 7 7 7 7 7 7 7 7 7 5 : * @ XXXXXXXXo o o o o o ",
"o o o o o o XXXXXXXXo & * = : : : : : ; ; ; ; : : ; : ; ; ; : ; ; ; ; ; : : : ; ; ; ; ; : : ; ; ; ; ; * * o XXXXXXXXo o o o o o ",
"o o o o o o o XXXXo o & & * * * * * * * * * * * * * * * * * * * * * & * * * * * * & * * * * * * & * & & & o o XXXXo o o o o o o ",
"o o o o o o o o o o o o o o o o o o o o o o o o o o o o o o o o o o o o o o o o o o o o o o o o o o o o o o o o o o o o o o o o ",
"o o o o o o o o o o o o o o o o o o o o o o o o o o o o o o o o o o o o o o o o o o o o o o o o o o o o o o o o o o o o o o o o ",
"o o o o o o o o o o o o o o o o o o o o o o o o o o o o o o o o o o o o o o o o o o o o o o o o o o o o o o o o o o o o o o o o ",
"XXXXXXo o o o o o o o o o o o o o o o o o o o o o o o o o o o o o o o o o o o o o o o o o o o o o o o o o o o o o o o o o XXXXXX",
"XXXXXXXXXXXXo o o o o o o o o o o o o o o o o o o o o o o o o o o o o o o o o o o o o o o o o o o o o o o o o o o o XXXXXXXXXXXX",
"XXXXXXXXXXXXo o o o o o o o o o o o o o o o o o o o o o o o o o o o o o o o o o o o o o o o o o o o o o o o o o o o XXXXXXXXXXXX",
"XXXXXXXXXXXXo o o o o o o o o o o o o o o o o o o o o o o o o o o o o o o o o o o o o o o o o o o o o o o o o o o o XXXXXXXXXXXX",
"XXXXXXXXXXXXXXo o o o o o o o o o o o o o o o o o o o o o o o o o o o o o o o o o o o o o o o o o o o o o o o o o XXXXXXXXXXXXXX",
"XXXXXXXXXXXXXXo o o o o o o o o o o o o o o o o o o o o o o o o o o o o o o o o o o o o o o o o o o o o o o o o o XXXXXXXXXXXXXX",
"XXXXXXXXXXXXXXo o o o o o o o o o o o o o o o o o o o o o o o o o o o o o o o o o o o o o o o o o o o o o o o o o XXXXXXXXXXXXXX"
};
