/* XPM */
static char *result[] = {
/* columns rows colors chars-per-pixel */
"64 64 103 2 ",
"   c #010000",
".  c #0A0605",
"X  c #0E0A07",
"o  c #120907",
"O  c #1A0A06",
"+  c #150D09",
"@  c #1C0D0B",
"#  c #1C120C",
"$  c #200F0A",
"%  c #22110D",
"&  c #2B170F",
"*  c #241710",
"=  c #291711",
"-  c #261A12",
";  c #2C1A13",
":  c #271C1F",
">  c #311E15",
",  c #2F2016",
"<  c #322117",
"1  c #362419",
"2  c #39261B",
"3  c #3D291D",
"4  c #2B1F20",
"5  c #332523",
"6  c #3F383F",
"7  c #412B1E",
"8  c #47311E",
"9  c #4A331F",
"0  c #442E20",
"q  c #473021",
"w  c #4C3424",
"e  c #503625",
"r  c #543927",
"t  c #5A3E25",
"y  c #563B29",
"u  c #593D2A",
"i  c #4B3932",
"p  c #453839",
"a  c #5E422D",
"s  c #654526",
"d  c #674826",
"f  c #6D4B27",
"g  c #61442E",
"h  c #64492F",
"j  c #6E4C29",
"k  c #724F28",
"l  c #76522C",
"z  c #7B552D",
"x  c #644630",
"c  c #654A31",
"v  c #6B4B33",
"b  c #704F35",
"n  c #715036",
"m  c #755338",
"M  c #7A563A",
"N  c #745B3B",
"B  c #7C593C",
"V  c #3B3743",
"C  c #49434C",
"Z  c #4C4C5D",
"A  c #4E5166",
"S  c #4F546B",
"D  c #575D76",
"F  c #80582E",
"G  c #835D34",
"H  c #8E6230",
"J  c #89653A",
"K  c #916431",
"L  c #976A35",
"P  c #9B6C34",
"I  c #A06F34",
"U  c #A17035",
"Y  c #AA7A3D",
"T  c #B37E3C",
"R  c #816742",
"E  c #896C42",
"W  c #8E764A",
"Q  c #C3893F",
"!  c #B18749",
"~  c #A48B56",
"^  c #B49153",
"/  c #B09359",
"(  c #CB8F41",
")  c #C89247",
"_  c #D99A46",
"`  c #DB9F4C",
"'  c #D4A355",
"]  c #E3A34B",
"[  c #EFAF52",
"{  c #E8B25A",
"}  c #F0B558",
"|  c #C2A766",
" . c #D8B062",
".. c #D2B369",
"X. c #EBBE67",
"o. c #F3BE62",
"O. c #E5C06E",
"+. c #5D6784",
"@. c #606C8C",
"#. c #667496",
"$. c #6A7A9F",
"%. c #6F81A8",
"&. c None",
/* pixels */
"%.$.@.S V : @ O O @ @ @ @ $ @ @ @ @ @ @ @ @ @ @ @ @ @ @ $ @ @ @ @ @ @ @ @ @ @ @ @ @ @ @ @ @ $ @ @ @ @ @ @ @ @ O O $ 4 V S @.$.$.",
"$.#.+.A V : % $ $ $ $ $ $ $ % % * $ $ % % % % % % % % % % $ % % % % % % % % % % * $ $ % % % % $ % % % % % % % % $ % 4 V A +.#.$.",
"@.+.D Z V 5 ; & ; & ; ; ; = ; ; ; ; ; ; ; ; ; = ; = = ; ; ; = ; = & ; & ; ; ; ; ; ; ; ; ; ; ; = ; = = ; & ; ; & = & 5 V Z D @.@.",
"S A Z C p 0 7 7 7 7 3 7 7 7 2 0 7 3 3 3 7 2 7 7 7 3 3 0 3 7 7 7 7 3 7 3 3 3 3 7 3 7 3 3 7 2 7 7 0 3 3 0 7 3 3 2 3 3 0 p C Z A S ",
"V V 6 p i e r r y y y y r y y y r y y r r r y r r r r y y r r r y r y i y y y y r y y r y r r r e r r y y r y y y y y i p V V V ",
": 4 5 0 i x v v v v x v v x x v c c v v v v v c v v x v v v v v v v v v x v x x c v v v v c v v v v x v v v v v v v a y 0 5 4 4 ",
"@ % ; 7 r v m M m m m m m m m m M m m m M n m m m m m m m m m m n m m m m m F m M n n M m m m m m m m m m m m m M n x y 3 & % @ ",
"O @ & 7 r v M B G M M M M B M M M M M M M M M M M M M M M M M M M M M M M M M G M M M M M M M M M M M M M M M G G M v r 3 & $ @ ",
"O $ & 7 r v M B M M B M M M M M M M M M M M M M M M M M M M M N M M M M M M M M M M M M M M M M M B m G M M m G B m v y 7 & % $ ",
"@ $ & 7 r v m M M m m m m m m m m N n m m m m M m m m m m m m m m m m m m m m m m m m m n M m m m m m m m m m M m m x y 3 & $ $ ",
"@ $ ; 3 r x b n b b b n v b v b v v v v v v v v v v v v v v v v v v v v b v v v b b v b v v v v v n v v v v v b m n x e 3 ; % @ ",
"@ $ = 3 w u x c x u u u u a u u a a a a a a a a a a a a a a a a a u a a u a a u u u g u a a a a u u a u a a g g x x u i > = @ $ ",
"$ % = 1 0 r u u r w w w i w w w w w w w w w w w w w w w w w w w e e w w w w w w w w w w w w w w i w w w w w e i u u y 0 > = % @ ",
"% % = > 0 w r w q 0 7 5 3 3 3 3 3 3 3 3 3 5 3 3 3 3 3 3 3 3 3 3 7 5 3 3 0 5 7 7 0 5 7 5 3 3 3 3 3 3 0 5 3 3 0 0 e e w 7 3 = % @ ",
"@ % = > 3 w e w 0 2 1 1 1 1 2 2 2 2 1 2 2 < 2 2 < 2 2 2 1 2 2 2 2 1 2 1 > > 5 2 2 1 1 1 2 1 2 1 0 > > 2 1 1 2 0 w e e 7 > = % % ",
"@ % = 2 q r y w 0 2 < 1 1 2 3 3 3 2 3 2 2 < < < 2 2 3 3 3 3 3 3 3 3 3 3 0 2 7 2 1 > 1 1 2 3 3 3 7 5 0 > 1 > 1 0 e y y w > = % @ ",
"@ % ; > e a a y q 3 1 2 3 3 q 8 q 3 q 3 2 < 1 1 3 7 q 7 q 0 7 0 0 0 7 0 0 0 7 7 3 > > 2 7 7 0 0 0 0 0 > 1 1 2 q r a a w 3 ; $ @ ",
"@ % ; 2 y x x a e 3 2 2 3 q w w w w q 3 3 1 1 3 7 q w w w w w q w 9 w e w w q 0 7 2 2 7 7 w w w w w w 0 3 1 3 w a c x r 3 ; % @ ",
"@ % ; 0 y v b a w 5 2 2 q w e e e e w q 3 3 3 3 8 w e w r w r r e e e e e e q q 3 2 5 7 0 9 e e r w w 0 3 2 3 w a v v y 7 ; % @ ",
"@ % ; 0 y v v g w 3 2 3 q w e r y e w w q 3 3 q w e e r w r r w e e r e e e w 0 3 1 > 7 0 w e r r e w 0 3 2 3 r x v v y 7 ; $ @ ",
"$ % ; 7 u v v g e 3 2 3 7 w e r e e w w w q q w w e e e e e e r e e e r e e e 0 3 2 1 3 0 w e r r e w 0 > 0 5 r a b v u 7 > $ @ ",
"@ $ & 7 y v v g e 3 2 3 7 w w r e e e e w w w w w e e e e e e e e e e e e e w 0 3 2 2 3 0 w e e e e w 0 0 > 3 w a v v y 7 ; $ @ ",
"@ % ; 7 y v v g w 3 2 3 q w e e r e e e e e e e e e e e e e e e e e e e e e w 0 0 2 3 0 0 w e r e e w 0 > 5 0 w g v v y 0 ; % @ ",
"@ % ; 7 y v v g w 3 2 7 7 w e w e e e e e r e e e e w e e e e w e e e e e e e 0 0 7 3 0 w w e r r e w 0 0 > 7 e g v x y 7 ; % @ ",
"@ % ; 0 y v v a e 0 > 0 0 w r r e e e e e e e e e e e e e e e e e e e e w e w w q q q q w e e e r w w 0 3 2 5 e g v v y 0 ; % $ ",
"@ % = 0 y x v x e 5 > 2 7 w w r e e e e e e e e e e e w e e e e e e e e e e e e w w e w e e e e r r w 0 3 2 7 w g b v y 5 ; $ $ ",
"$ % = 0 y v v x w 7 5 7 8 w e e e e e e w e e e e e e e e e e e e e e e e e e w e e e e e e e e w w w 0 3 2 3 w u b v y 0 ; $ $ ",
"@ % = 3 y v v a w 7 2 7 7 w e e e e e e e e e e e e e e e w e e e e e e e e e e e e e w w q 9 9 w w q 7 2 2 7 w x v x y 0 ; % @ ",
"@ % ; 0 y x v x w 3 2 3 7 w e e e e e e e e e e e w e e e e e e e e e e e e w e r w r w q q w q w q q 7 2 2 7 w g v v y 2 ; % $ ",
"@ % & 7 y v v a w 3 1 3 7 w e e e e e e e e e e e e w e e e e e e w e e e e e e r w w r r r r r r e w q 7 > 3 w g v v y 7 = % @ ",
"@ % = 3 y v v g e 7 2 3 q w r e e e e e e e e e e e e e e e w e e e e e e e e e w r r u a g x v s g t e 7 7 0 w a v v y 0 ; % @ ",
"@ % ; 0 y v v g e 5 2 3 0 w w r e e e e e e w e e e e e e e e e e e e e e e e w w r u c N R E E J G z s e 7 5 w a v x r 0 = % @ ",
"@ % ; 7 i v v g e 3 2 3 7 w e e e e e e e e e e e e e e e e e e e e e e e w e w w e u M W ~ / ^ ! Y L z t 7 7 w a v v r 7 ; % @ ",
"@ % ; 7 y v v g e 3 1 3 7 w e e e e e e e e e e w e e e e e e e e e e e e e e w w e x R ~ | .. .' ) T H d 9 7 q a v v y 7 ; % @ ",
"@ % ; 7 u v v g w 3 2 3 8 w e e e e e e e e e e e e e e e e e e e e e e e e e w w e v E / ..X.X.{ ` ( L f 9 5 q a v c y 7 ; % @ ",
"@ % ; 3 y v v g w 3 2 3 7 w e e e e e e e e e e e e e e e w e w e w e e e e w w w e x E ^  .X.X.} ] ( I k w 0 q a v v y 7 ; % @ ",
"@ % ; 7 y c v g w 3 2 3 q w r e e e e e e e e e e e e e e e e e e e e w e e w w w e x G T ' { [ [ ] ( I k e 7 w u v v u 7 ; $ @ ",
"@ % ; 7 y c v a e 3 2 2 7 w r e e e e e e e q e e e e e e e e e e e e e e e e w w e s G Y ) ` ] ] _ Q P f 9 3 w g v v y 7 ; % @ ",
"@ % ; 7 a c v g e 3 2 3 q w w r e e e e e e e e e e e w e e e e e e e e e e w w w e a z E Q Q ( ( Q Y H s 8 7 q u v x y 7 ; % @ ",
"@ $ ; 7 a c v a e 3 2 2 7 q e r e e e e e e e e e e e e e e w e e e e e e e e e w e u j F K I I I P H k t 7 7 q x v v r 7 > $ @ ",
"@ $ ; 7 y x v g w 3 3 3 0 q r w e e e e e e e e e e e e e e e e e e e e e e e w w e e u s f f k k f d a 8 3 3 w a v v r 0 ; $ @ ",
"@ * ; 7 y v v g w 3 1 3 0 w w r e e e e e e e e e e e e e e e e e w e e e e e e e e e e w q 9 9 9 8 8 7 2 1 3 w x v v u 3 ; * @ ",
"@ % ; 7 y v v g r 3 1 3 0 w w r e e e e w e 9 e e w e e e e e e e e e e e e e e e e w 0 0 2 2 2 2 2 2 1 1 1 7 r x v v y 0 ; $ @ ",
"@ $ ; 0 y v v g w 3 1 3 0 w r w e e e q q q 0 q w w e e w e e e e e e e e e e e e e e q 7 7 2 2 2 2 1 1 < 1 5 e a v v r 3 ; % @ ",
"$ % & 7 y v v g w 5 3 3 0 w e e e e e q 0 7 7 0 q e r e w e e e w e e e e e e e e e w w 0 7 7 7 3 3 3 3 1 1 3 e x v v y 7 ; $ @ ",
"$ % ; 5 y v b u w 3 3 3 0 w e r e e w 0 7 7 2 7 q w e e e e e e e e w e e e e e e e e w e w w w e w q 8 2 2 3 w g v v y 7 ; % @ ",
"@ % ; 0 y v v g w 3 2 2 0 w e e r e w 0 3 2 1 7 9 w e e e e e e e e e e e e e w e e e e e e e e e e w 7 3 2 5 w g v v y 0 ; % @ ",
"@ % = 0 y v v g w 7 2 2 0 w e r e e w 0 3 2 1 3 7 w e e e e e e e e e e e e e e e e e e e e e e r e w q 7 2 7 w g v x r 7 ; % @ ",
"@ % = 0 y v v a e 3 1 3 0 w e e r w w q 7 1 1 3 0 w r r e e e e e w e e e e w r e e r e r r w r r r w 7 3 2 3 e a v c y 3 ; % # ",
"@ % & 0 y v v g w 3 1 3 0 w e e r r q 7 3 2 3 3 0 q r w e w e e e r w e e w r w e e e e w w r w e w w q 3 2 3 w a v v e 3 ; % @ ",
"@ % = 0 u v v a e 7 3 3 0 q e r r w w q 7 2 2 3 0 q w r w r w r e e e e e e w r w w e e w r w r w r w 7 3 3 3 w a v v a 7 ; % @ ",
"@ @ & 0 u v b x e 5 3 3 q e e r r r e q 3 2 2 7 q w r r r r r w e r w r r r e r q q q q w e r r r r w q 5 3 3 r c n v a 7 ; % @ ",
"@ % ; 0 y v b g r 7 3 7 0 e e y r r w q 3 2 3 3 q r r r r r r r r r e r r r w w q 7 7 q w w r r r r w q 3 2 3 e g b v u 7 ; % @ ",
"@ % & 0 y v v g w 3 2 5 0 e e e r r w 7 3 2 2 3 7 w w r w r r r e e e e r r w 7 7 3 3 7 q w r r w r w q 3 2 3 w g v v r 7 ; % @ ",
"$ % = 2 w u a y q < , < 3 0 8 0 q 7 9 5 1 , , 1 3 7 q q 0 q 7 q 0 0 7 q 8 7 5 3 1 < > 1 3 7 8 q q q 7 2 1 , < q r a a w 2 ; % $ ",
"@ % & > 3 0 0 5 , - * * ; > > > < < < - - * * - ; ; < < < < < < < > 1 > 1 < < ; - * * - - , < 1 < < , ; - * - , 3 8 7 3 > = % $ ",
"% % % % - - - * # + + + # + # # # # # + + + + # + # # # # # # # # # # # # # # # + + + + # # # # # # # + + + + # * - ; - * % % % ",
"% % % @ + + X X X .   . X X X X . . X . . X   . . . X . X . X . . X . . X . . .   . . . . . . . X . X . . . X . X X + + # @ % % ",
"# # @ o X                                                                                                             . o @ # # ",
"O o o X .                                                                                                             . X o o O ",
"X o . .   &.&.&.&.&.&.&.&.&.&.&.&.&.&.&.&.&.&.&.&.&.&.&.&.&.&.&.&.&.&.&.&.&.&.&.&.&.&.&.&.&.&.&.&.&.&.&.&.&.&.&.&.&.&.  . . o . ",
"        &.&.&.&.&.&.&.&.&.&.&.&.&.&.&.&.&.&.&.&.&.&.&.&.&.&.&.&.&.&.&.&.&.&.&.&.&.&.&.&.&.&.&.&.&.&.&.&.&.&.&.&.&.&.&.&.    .   ",
"        &.&.&.&.&.&.&.&.&.&.&.&.&.&.&.&.&.&.&.&.&.&.&.&.&.&.&.&.&.&.&.&.&.&.&.&.&.&.&.&.&.&.&.&.&.&.&.&.&.&.&.&.&.&.&.&.        ",
"        &.&.&.&.&.&.&.&.&.&.&.&.&.&.&.&.&.&.&.&.&.&.&.&.&.&.&.&.&.&.&.&.&.&.&.&.&.&.&.&.&.&.&.&.&.&.&.&.&.&.&.&.&.&.&.&.        "
};
