/* XPM */
static char *result[] = {
/* columns rows colors chars-per-pixel */
"64 64 207 2 ",
"   c #509B66",
".  c #0B0603",
"X  c #050A06",
"o  c #0A0906",
"O  c #05060C",
"+  c #060B0A",
"@  c #0B0C09",
"#  c #120603",
"$  c #130A05",
"%  c #130D09",
"&  c #1A0E09",
"*  c #06100A",
"=  c #0C120C",
"-  c #14140D",
";  c #1C130C",
":  c #080615",
">  c #060A13",
",  c #0A0B15",
"<  c #070D1B",
"1  c #0C0E19",
"2  c #120F14",
"3  c #0E1E14",
"4  c #0D121B",
"5  c #0F1314",
"6  c #1A1415",
"7  c #121C12",
"8  c #1B1D13",
"9  c #10161D",
"0  c #171216",
"q  c #24140C",
"w  c #29160D",
"e  c #24190F",
"r  c #2C190F",
"t  c #251A12",
"y  c #2D1C13",
"u  c #221814",
"i  c #311E12",
"p  c #0F2316",
"a  c #112116",
"s  c #122619",
"d  c #152C1D",
"f  c #1A2D1D",
"g  c #1C2417",
"h  c #14301F",
"j  c #212316",
"k  c #2A271A",
"l  c #342214",
"z  c #3D2516",
"x  c #33231A",
"c  c #3B251A",
"v  c #3D291A",
"b  c #081327",
"n  c #151A24",
"m  c #0B1A36",
"M  c #191E30",
"N  c #211E27",
"B  c #1B2C2A",
"V  c #182626",
"C  c #163120",
"Z  c #193322",
"A  c #1C3B26",
"S  c #1E342D",
"D  c #1E3D29",
"F  c #172138",
"G  c #33282C",
"H  c #372B26",
"J  c #213422",
"K  c #233A26",
"L  c #223C28",
"P  c #373928",
"I  c #3B2E30",
"U  c #223C32",
"Y  c #3B3237",
"T  c #252128",
"R  c #402717",
"E  c #412817",
"W  c #442A1A",
"Q  c #492E1B",
"!  c #4C321E",
"~  c #51341E",
"^  c #59391E",
"/  c #57381F",
"(  c #482F21",
")  c #4E3322",
"_  c #48372B",
"`  c #523621",
"'  c #573A23",
"]  c #583B23",
"[  c #553B29",
"{  c #5D3E2B",
"}  c #553729",
"|  c #483A3C",
" . c #603F2B",
".. c #23432C",
"X. c #27472F",
"o. c #39412E",
"O. c #264D33",
"+. c #284B36",
"@. c #354E35",
"#. c #295136",
"$. c #2B5539",
"%. c #2D5B3C",
"&. c #315C3D",
"*. c #335438",
"=. c #32603F",
"-. c #584835",
";. c #4F4432",
":. c #63432C",
">. c #69472F",
",. c #6B4932",
"<. c #6B4D3A",
"1. c #654634",
"2. c #704D36",
"3. c #734E39",
"4. c #765139",
"5. c #7B553D",
"6. c #7F583F",
"7. c #0E1F40",
"8. c #0E2247",
"9. c #14264A",
"0. c #162D58",
"q. c #1D3059",
"w. c #212E50",
"e. c #2D3553",
"r. c #313957",
"t. c #303754",
"y. c #2F3245",
"u. c #153265",
"i. c #1C3669",
"p. c #1B3B77",
"a. c #1C3E7B",
"s. c #2D3C62",
"d. c #233F78",
"f. c #223E77",
"g. c #463E44",
"h. c #2F5641",
"j. c #315A42",
"k. c #3B415D",
"l. c #346543",
"z. c #356A46",
"x. c #386C4A",
"c. c #376948",
"v. c #3A724B",
"b. c #3D784F",
"n. c #3F7A51",
"m. c #34446A",
"M. c #374568",
"N. c #24417B",
"B. c #384C76",
"V. c #3E557D",
"C. c #3A5077",
"Z. c #2E426B",
"A. c #494145",
"S. c #4C464B",
"D. c #464147",
"F. c #42445D",
"G. c #765641",
"H. c #7B5740",
"J. c #7A5847",
"K. c #6F5855",
"L. c #417D53",
"P. c #535571",
"I. c #675B68",
"U. c #715E61",
"Y. c #80593E",
"T. c #845C43",
"R. c #885F44",
"E. c #896045",
"W. c #8C634A",
"Q. c #90664A",
"!. c #93684D",
"~. c #9B6E53",
"^. c #956C55",
"/. c #9F7154",
"(. c #9C715A",
"). c #A17356",
"_. c #A57659",
"`. c #AC7B5D",
"'. c #997463",
"]. c #8D6E66",
"[. c #438256",
"{. c #458559",
"}. c #478A5A",
"|. c #498D5D",
" X c #4A905F",
".X c #4C9462",
"XX c #4F9965",
"oX c #509B66",
"OX c #529F68",
"+X c #53A16A",
"@X c #57A96F",
"#X c #1C4388",
"$X c #1E4893",
"%X c #1C4B9C",
"&X c #234484",
"*X c #294986",
"=X c #214C94",
"-X c #29559A",
";X c #1D4FA1",
":X c #1F52A3",
">X c #2154A4",
",X c #2559AA",
"<X c #2256A8",
"1X c #305EA2",
"2X c #285FB0",
"3X c #3161A6",
"4X c #2961B3",
/* pixels */
"oXoXoXoXoXoXoXoXoXoXoXoXoXoXoXoXXXoX+X+X+X@X@X+X}.$.s       X Z v. Xb...*                   X A l. XOX+XoXoXoXoXoXoXoXoXoXoXoXoX",
"oXoXoXoXoXoXoXoXXXoXoXoXoXoXoXoXXX+XXX X XXX+X X[.O.a       X A l.{.v...=         .         X Z l. XOXOXoXoXoXoXoXoXoXoXoXoXoXoX",
"oXoXoXoXoXoXoXoXoXoXoXoXoXoXoXoX+XXX X[.b.v.v.v.%.A =     # ; J *.l.&.K - # # $ - ; ; @ .   o Z l. XOXOXoXoXoXoXoXoXoXoXoXoXoXoX",
"oXoXoXoXoXoXoXoXoXoXoXoXoXoXoXOX+XoX}.l.O.D D D Z p *   o e l J K K J j e e y l l l l l & . @ Z l. XOX+XoXoXoXoXoXoXoXoXoXoXoXoX",
"oXoXoXoXoXoXoXoXoXoXoXoXoXoXoXOXoX Xb.X.a * * = * X .   e z Q v g - 7 e l z Q ! ! ` ) W r $ * h l. X+X+XoXoXoXoXoXoXoXoXoXoXoXoX",
"oXXXoXoXoXoXoXoXoXoXoXoXoXoXXX.X{.L.*.J - . . $ $ # o ; l Q ~ v q $ & r v ! ~ / ] ` ! v e $ o Z l. X+X+XoXoXoXoXoXoXoXoXoXoXoXoX",
"oXoXoXoXoXoXoXoXXXoXoXoXOXoX.X[.l.O.J j q q q w r j y l v ` ` W i q e z Q ~ ] ] ` Q l e $ . o Z x..X+X+XoXoXoXoXoXoXoXoXoXoXoXoX",
"oXoXoXoXoXoXoXXXoXoXoXoXOX+X Xx...s - e i l z Q ! Q ! ! ~ ' ' ! W l z W ` ' ] ] ! l ; .     * Z l. X+X+XoXoXoXoXoXoXoXoXoXoXoXoX",
"oXoXoXXXoXoXXX+XoXoXoXoX+X+X.Xl.h @ # q z ! ! ' ' ' ] ] ' ' ' ` Q W Q ~ ' ' ] ] ! l ; o .   = f %.n. X.XoXoXoXoXoXoXoXoXoXoXoXoX",
"oXoXoXoXoXoXXXXXoXoXoXoX+X+X.Xz.h X # w W ! ] ] ] { ] ] ] ' ' ` ~ ~ ! / ' ] ] ] ) W l e q & ; j K #.l.[..X+X+XoXoXXXoXoXoXoXoXoX",
"oXoXoXoXoXoXoXoXoXoXoXoX+X+X Xl.h o # r ! / ] ] ' ] ] ] ] ' ] ' ` ` / ' ' ] ] ' ` ! ! W z z i j 8 s L z. X+X+XoXoXoXoXoXoXoXoXoX",
"oXoXoXoXoXoXoXXXoXoXoXXXXX X[.&.f = & l ! ] ] ] ' ' ' ' ] ' ' ' ' ' ' ' ' ] ' ] ] ] ] ` ! Q E r & o f $.L. XXXXXoXoXoXoXoXXXoXoX",
"oXoXoXoXXX+XXXXXXXXXXX.X{.v.%...g 8 w z ` ] ] ' ] ' ] ' ' ' ' ' ' ' ] ' ' ] ' ' ] ] ] ] ` ` Q l w & 8 K *.z.[. XoXoXoXoXoXoXoXoX",
"oXoXoXoXoXoXXX+XOX+X+X|.x.X.f g t y z ! ' ] ] ] ' ' ' ' ] ' ] ' ' ' ] ' ' ' ' ] ] ] ] ] ] ` ! Q z r e 8 f ..l.}.oXOXoXoXoXoXoXoX",
"XXoXoXoXXXoXXXOXOX+X+X}.=.d o $ w z Q ! ' ' ] ' ' ' ] ' ' ' ' ] ' ' ' ' ' ' ] ' ' ] ' ] ] ] ` ! Q E r & o s $.[.oX+XoXoXoXoXoXoX",
"oXoXoXoXXX+XXXXXXX+XXX}.%.s . # w z Q ! ' ' ] ' ] ' ] ' ] ' ' ' ] ' ] ' ] ' ' ' ' ' ' ' ] ] ' ` ! E r $   3 #.[.oX+XoXoXXXoXoXoX",
"oXoXoXoXoXoXoXoXoX+XOX}.%.s   $ w z ! ! ' ' ' ' ' ' ' ' ' ] ' ' ' ] ' ] ' ] ' ] ' ] ] ' ' ' ' ~ Q E r $ . 3 O.[.XX+X+XXXXXXXXXoX",
"oXoXoXoXoXoXoXXXoX+XoX|.%.d X $ w z Q ~ ' ' ] ' ' ] ] ' ' ' ] ' ' ' ' ' ' ' ' ' ' ' ' ' ' ' ' ` Q E r # o a #.[.XX+X+XXXXX+XoXoX",
"oXoXoXoXoXoXoXoXoX+XoX}.&.s o # w z Q ! ' ] ] ' ' ' ' ' ' ' ' ' ' ] ' ' ' ] ' ' ] ' ' ] ' ' ' ` Q R r # o a #.[.oX+XXXXXXXXXoXoX",
"oXoXoXoXoXoXoXoXoX+X+X}.%.s o # w z Q ! ' ] ] ' ' ] ' ] ] ' ] ' ' ' ] ' ' ' ' ] ' ] ] ] ] ] ' ~ Q E r &   a #.[.+X+X+XXXoX+XXXoX",
"oXoXoXoXoXoXoXoXoX+XoX}.%.d o # q z Q ! ` ' ' ' ' ' ] ' ' ' ' ' ' ' ' ] ' ' ] ' ' ' ] ' ' ' ' ` Q E r & . 7 #.[.XX+X+XoXoXoXoXoX",
"oXoXoXoXoXoXoXoXoX+X+X}.%.s X # w z Q ! ) ' ' ' ' ' ' ' ] ] ' ' ] ' ' ' ' ] ' ' ] ' ' ' ' ' ` Q Q R r & . a #.[.+X+XoXoXoXoXoXoX",
"oXoXoXoXXXoXoXoXoX+XoX}.%.s   # w z Q Q ! ! ~ ' ] ] ] ] ' ' ' ' ] ' ' ' ' ' ' ] ] ' ] ' ` Q Q Q W R r #   a #.[.XX+XoXXXoXXXoXoX",
"oXoXoXoXoXoXoXoXoX+X+X}.%.d o $ w z E E W Q ! / ] ] ' ' ] ' ' ' ' ' ' ] ' ] ' ' ' ] ' ' ` Q Q E W R r # o a #.[.oX+X+XoXoXoXoXoX",
"oXoXoXoXoXoXoXoXoX+XXX}.l.A a ; e l l z R E Q ` ' ' ' / ' ' ' ' ' ' ' ' ' ' ' ` ' ' ' ` Q Q R E E R r $ o 3 #.[.oX+X+XXXoXXXoXoX",
"oXoXoXXXoXoXoXoXoX+X+X Xb.=.X.J j e r i R E Q Q Q Q Q Q ` ' ' ' ] ] ] ' ] ' ` ) Q Q Q Q Q E R R E R r $ . 3 O.[.oX+XoXoXoXoXoXoX",
"oXoXoXoXXXoXoXoXoXoXXXXX X}.b.#.g - & r R E W E W W Q Q Q ' ' ' ] ' ] ' ' ` ! Q E Q W E E R R R W R r & . 3 O.[.oX+X+XoXoXoXoXoX",
"oXoXoXoXoXoXoXoXoXoXoXoX+XoX|.l.Z o # q i E E R E E E E Q Q ' ' ' ` ' ' ' ` Q W E E E R E E R R R l r - = d =.[.oX+XoXoXoXoXoXoX",
"oXoXXXoXoXoXoXoXoXoXoXoX+X@X.Xz.Z X . q i R E R R R R E E Q Q ~ ! ! ~ ! Q Q Q R R z R R R R z l r w j k ..O.v. XXX+X+XoXoXoXoXXX",
"oXoXoXoXoXoXoXoXoXoXoXoX+X+X Xl.Z + . q i R E E R R R R E W Q W Q Q W W Q W W E R R R z R R l r & & g X.=.[.}. X+X+X XoXoXoXoXoX",
"oXoXoXoXoXoXoXoXoXoXoXoX+X+X Xl.Z o $ w E Q W E R z R R E E E R R R E R E E E E R R E E W W W r & @ d $.[.XXXX+X X+XoXoXoXoXoXoX",
"oXoXoXoXoXoXoXoXoXoXoXoX+XoX Xl.h X & c {  .' W z z z z E R R R R R E z E z z z z z z E /  .{ Q ;   s %. X+X+X+X X+XoXoXoXoXoXoX",
"oXoXoXoXoXoXoXoXXXXXoXXX+X+X X=.C o u } 5.T.>.Q R i i R z R R R R z R R R z z z z l z W  .5.J.{ y . p $.|.+X+X+XoXoXoXoXoXoXoXoX",
"oXoXoXoXoXXXoXoX+X+XXXXXOX+X Xl.C 5 y  .R.R.3.} W E Q E W R R R R R R R R E E E W W E ~ 2.R.!.<.H - d %.}.oX+XoXoXoXoXoXoXXXoXoX",
"oXoXoXoXoXoXoXoXXXXXXX+XOXOX Xb.+.Z P -.G.H.<.:. . .{ ] ~ Q E z z z z z R E ` ' { { :.:.2.H.J.1.P Z O.z. X+X+XoXoXoXoXoXoXoXoXoX",
"oXoXoXoXoXoXoXoX+XXXXXXX+XXX X}.v.l.*.o._ [ <.H.T.R.T.5.>.Q R l z z l z R )  .4.T.T.T.H.2.} _ P @.%.v.[. XoXoXoXoXoXoXoXoXoXoXoX",
"XXoXoXoXXXoXoXoXXXXXXXoXoXoXXXXX.X{.l.L 8 x { T.)._.).!.5.:.W z R R R z R } 3.Q.).`.).Q.1.c 8 J &.[. XXXoXoXoXoXoXoXoXoXoXoXoXoX",
"oXoXoXoXXX+XoXoXXX+X+XXXoXoXoX+X+XXXx.A * 6 } T.).`.`._.E.2.{ / } ] } } { ,.R.).`.`.).W.{ t o h l..X+X+XoXoXoXoXoXoXoXoXoXoXoXoX",
"oXoXoXoXoXXXoXoXoXoXXXXXoXoXoX+X+XXXv.A * % R 2.E./.`.`./.E.Y.5.Y.5.5.5.Y.R.~.`.`.).Q.4.( ; * h l..X+X+XoXoXoXoXoXoXoXoXoXoXoXoX",
"oXoXoXoXoXoXoXoXoXoXoXoXoXoXoX+X+X.Xv.A @ $ i ' 3.E.).`.`./.~.~.~.~.~.~.~./._.`.).Q.4.{ l % = f l. X+X+XoXoXoXoXoXoXoXoXoXoXoXXX",
"oXoXoXoXoXoXoXoXoXoXoXoXoXoXoXoX+X.Xv.A * $ e Q :.4.Q./././././././././././.)./.Q.Y.>.~ i $ * h l. X+X+XoXoXoXoXoXoXoXoXoXoXoXoX",
"oXoXoXoXoXoXoXoXoXoXoXoXoXoXoX+X+X.Xv.A = $ q Q :.,.4.T.E.E.R.R.R.R.R.R.E.E.E.E.5.2.:.! i $ o h l. XOXoXoXoXoXoXoXXXoXoXoXoXoXoX",
"oXoXoXoXoXoXoXoXoXoXoXoXoXoXoX+X+XXXv.A = o r ! ] :.>.>.>.>.>.>.,.,.>.>.,.>.,.>.:.:.:.Q i $ * Z l. X+X+XoXoXoXoXoXoXoXoXoXoXoXoX",
"oXoXXXoXoXoXoXoXoXoXoXoXXXoXoXoX+X.Xv.A = # w ! ~ :.] ] ] :.^ ;.] ] ] ] ] ] ] ] ^ :.' Q l $ o h l. XoX+XoXoXoXoXoXoXoXoXoXoXoXXX",
"oXXXoXoXoXoXoXoXoXoXoXoXoXoXoX+X@XoXv.A * . r ! ] ] ] ` ' ` ' ` ' / / ` ` ' ~ ' / ^ / Q y o X h l. X@X+XoXoXoXoXoXoXoXoXoXoXoXoX",
"oXoXoXoXXXoXoXoXoXoXoXoXoXoXoX+X+X Xv.A * . w Q ] ^ ] / ' ` ' ' ' ' ' ' ` ' ' ' ^ ;.:.~ i $ * Z l..X+X+XoXoXoXoXoXoXoXoXoXoXoXoX",
"oXoXoXoXoXoXoXoXoXoXoXoXoXoXXXXXXX}.x...7 ; l Q / ^ ;.' ' ' ] ' ' ' ' ' ' ' ' ' ^ ' ' ! l ; - Z =.}..XXXoXoXoXoXoXoXXXoXoXoXoXoX",
"oXoXoXoXoXoXoXoXoXoXoXoXoXoXXX Xn.l.*.o.H v W ! ~ ~ ^ ^ / / ^ ^ / / ^ ' ^ / ' ^ / ~ ~ ~ Q v v o.*.l.b.}..XoXoXoXoXoXoXoXoXoXoXoX",
"oXoXoXoXoXoXoXoXoXXXoXoXoXoX Xn.#.K P ;.<.<.:.! Q ! ~ ^ / / / ^ ^ ^ ^ ^ ^ ^ ^ ' ~ ~ Q ~ } <.<.-.P L O.v.|.OXOXOXXXXXXXXXOXXXXXOX",
"oXoXoXoXoXoXoXoXoXoXoXoX+X+X Xz.A 7 k 1.W.W.3.` W ( ` ] [ ;.[ ' ] ] ' ;.[ [ [ { ' ( W ) <.R.!.<.v 7 h =.}.OXOXoXXXOXOXXXXXOXoXXX",
"oXoXoXoXoXoXoXoXoXoXoXoX+XOX X=.d o y <.(.(.J.A.Y y.D.S.S.S.S.A.A.A.A.S.S.S.S.S.g.y.Y g.G.^.(.H.c @ p $.}.OXOXoXXXOXXXXXoXoXoXoX",
"oXoXoXoXoXoXoXoXoXoXoXoX+XOX X=.V @ y 2./.'.U.F.Z.Z.B.V.P.V.V.C.m.M.M.C.*XP.V.V.P.m.s.r.I.]._.H.z o p $.}.OX+XOXOXXXXXOXoXoXoXoX",
"oXXXoXoXoXoXoXoXOXXXXXOXOXOX X=.h = y ,.!.'.I.B.N.=X-X3X3X3X1X-X*X&X&X-X1X1X3X3X>X=X*XB.P.].(.3.c = s $.}.OX+XoXoXoXXXoXoXoXoXXX",
"oXoXoXoXoXoXoXoXXXOXXXXX+X+X Xz.Z 2 u } G.U.P.*X$X;X,X2X4X4X,X;X#Xp.a.=X,X2X4X2X,X:X%X*XP.U.J.{ y 2 d j.}.OX+XoXoXoXoXoXoXoXXXOX",
"oXoXoXoXoXoXoXoXXXOXXXOXOX+X.Xv.K 5 6 i _ g.r.*X$X;X:X<X,X,X-X#Xu.8.0.a.=X,X,X<X:X;X%X#Xs.g._ H 6 2 Z l..X+X+XOXoXoXoXoXoXoXoXoX",
"oXoXoXoXoXoXXXoXXXXXOXXXOXOX.Xz.U 9 : $ 6 n q.p.#X$X$X$X=X=X#Xu.m b m 0.#X=X%X$X$X$X#Xa.q.M 6 % @ 9 B l.}.OX+XoXoXoXoXoXoXoXoXoX",
"oXoXoXoXoXoXoXoXOXOXXXXXXX.Xn.j.S n O     < F i.d.N.d.f.a.a.i.8.b > < 8.u.a.d.d.d.d.d.i.9.1     O 9 B h.n.|..XXXoXoXoXoXoXoXoXoX",
"oXoXoXoXoXoXoXoXOXXXXX.X{.x.h.+.B 4 O     > n w.t.r.t.e.w.9.8.m < > < b m 9.q.e.t.r.r.e.M ,     O 4 n U h.x.L..XXXOXoXoXoXoXoXoX",
"oXoXoXoXoXoXoXoXXXOXOX Xb.+.B n 4 1 O O   O 6 G I I I G T n 1 : > > > < : n n G I I Y G u @     O 1 b n V U c.}.oX+XoXoXoXoXoXoX",
"oXoXoXoXoXoXoXoXOXOXOX|.c.S 4 1 1 1 > O   o e i c z c x q %   O > < > + O @ e i v v z x u @ O O : 1 1 1 4 S j.{.oX+XoXoXoXXXoXoX",
"oXoXoXoXoXoXoXoXOXOXoX|.j.B 4 : : 1 1 O O % & u y y y t ; @ O O , 1 , O O o & t y y y u 6 % O O : 1 , : , V j.{.oX+XoXoXoXoXoXoX",
"oXoXoXoXoXoXoXoXoXOXoX|.c.S 4 : : 1 1 , , , 2 0 6 6 6 6 2 2 , , , 1 1 , O , 2 6 6 6 6 6 2 2 , , , , 1 : , B h.{.oX+XoXoXoXoXoXoX",
"oXoXoXoXoXoXoXoXoX+XoX|.j.S b : 1 1 1 1 1 1 1 1 4 1 b 4 1 1 1 1 1 1 1 1 1 1 1 1 1 1 1 1 1 1 1 1 1 1 1 : 4 B j.{.oX+XOXoXoXoXoXoX",
"oXoXoXoXoXoXoXoXOXOXoX|.c.U 9 : 1 1 1 1 1 1 1 1 1 1 1 1 1 1 1 1 1 1 1 1 1 1 1 1 1 1 1 1 1 1 1 1 1 1 1 , 4 B j.}.XX+XoXoXoXoXoXoX"
};
