/* XPM */
static char *result[] = {
/* columns rows colors chars-per-pixel */
"64 64 62 1 ",
"  c #509B66",
". c #1F110E",
"X c #0F0E17",
"o c #0C0E19",
"O c #130E14",
"+ c #180F11",
"@ c #100F18",
"# c #161015",
"$ c #1B1213",
"% c #131219",
"& c #1B1519",
"* c #1E181A",
"= c #22120D",
"- c #261610",
"; c #281711",
": c #251816",
"> c #2C1A13",
", c #221A1C",
"< c #2B1E1B",
"1 c #311E16",
"2 c #311F18",
"3 c #352117",
"4 c #35221A",
"5 c #3B261A",
"6 c #3E281C",
"7 c #432B1E",
"8 c #442D20",
"9 c #482F20",
"0 c #473023",
"q c #4C3223",
"w c #4E3628",
"e c #513625",
"r c #543927",
"t c #563B28",
"y c #5A3D2A",
"u c #5E412C",
"i c #61442E",
"p c #654730",
"a c #664831",
"s c #6B4B33",
"d c #6C4E3A",
"f c #704F35",
"g c #6F513C",
"h c #725136",
"j c #755338",
"k c #79563B",
"l c #7B583D",
"z c #7E5B40",
"x c #815E42",
"c c #866145",
"v c #886446",
"b c #87644A",
"n c #8A6549",
"m c #8D694D",
"M c #926C4E",
"N c #946E51",
"B c #977153",
"V c #9A7355",
"C c #9D7658",
"Z c #9F785A",
"A c #A17A5B",
"S c #509B66",
/* pixels */
"SSSSSSSSSSSSSSSSSSSSSSSSSSSSSSSSSSSSSSSSSSSSSSSSSSSSSSSSSSSSSSSS",
"SSSSSSSSSSSSSSSSSSSSSSSSSSSSSSSSSSSSSSSSSSSSSSSSSSSSSSSSSSSSSSSS",
"SSSSSSSSSSSSSSSSSSSSSSSSSSSSSSSSSSSSSSSSSSSSSSSSSSSSSSSSSSSSSSSS",
"SSSSSSSSSSSSSSSSSSSSSSSSSSSSSSSSSSSSSSSSSSSSSSSSSSSSSSSSSSSSSSSS",
"SSSSSSSSSSSSSSSSSSSSSSSSSSSSSSSSSSSSSSSSSSSSSSSSSSSSSSSSSSSSSSSS",
"SSSSSSSSSSSSSSSSSSSSSSSSSSSSSSSSSSSSSSSSSSSSSSSSSSSSSSSSSSSSSSSS",
"SSSSSSSSSSSSSSSSSSSSSSSSSSSSSSSSSSSSSSSSSSSSSSSSSSSSSSSSSSSSSSSS",
"SSSSSSSSSSSSSSSSSSSSSSSSSSSSSSSSSSSSSSSSSSSSSSSSSSSSSSSSSSSSSSSS",
"SSSSSSSSSSSSSSSSSSSSS                          SSSSSSSSSSSSSSSSS",
"SSSSSSSSSSSSSSSSSSSS==== ==- ====== == = == ====SSSSSSSSSSSSSSSS",
"SSSSSSSSSSSSSSSSSSSS>>>>>111112211111224111>>>>>SSSSSSSSSSSSSSSS",
"SSSSSSSSSSSSSSSSSSS135789qwwqewwwwwwwwwwwwq07753>SSSSSSSSSSSSSSS",
"SSSSSSSSSSSSSSSSS -18qtyadzdhggggggggggghgdautq73- SSSSSSSSSSSSS",
"SSSSSSSSSSSSSSSS ->6qpdzxbbbmmmmmmmmmmmmmmbzzdiw6>= SSSSSSSSSSSS",
"SSSSSSSSSSSSSSSS;>19ygzbMVCVVBBBBBBBBBBVCCBNbzdu93>;SSSSSSSSSSSS",
"SSSSSSSSSSSSSSS1170yszbMVCZCVBMMMMMNmNBBCZCBNblsy9731SSSSSSSSSSS",
"SSSSSSSSSSSSS=>37riszvMBAVABMvvvcvvccvnMBACCBNnlsue73;=SSSSSSSSS",
"SSSSSSSSSSSS =>5eiflbMBCAVNMvzllklkkklznMBCCCBMnzdiw3>==SSSSSSSS",
"SSSSSSSSSSSS =>5rskcMBCAAVBMxljhjjjjjjlxnBCAACBMckse7>= SSSSSSSS",
"SSSSSSSSSSSS =>5rslnNBAAAABnxkhfffhhfflxMBVAAAVNnzsr5>= SSSSSSSS",
"SSSSSSSSSSSS =>6tslnNBAAAANmxkfffhhhffkxnBCAAAVMnlsr7;= SSSSSSSS",
"SSSSSSSSSSSS =>5rslcMVCAAVBmckjjhjjhjjlxMBVAAABMclsr5>= SSSSSSSS",
"SSSSSSSSSSSS =>5epjxnMVCACVMvzzkklllllxcMBCCVBNnxjie5;= SSSSSSSS",
"SSSSSSSSSSSS =>5qiflxnMNVVVNMvxxxcvxxccmBVCVBMnxlfiq5;==SSSSSSSS",
"SSSSSSSSSSSS =;37tpfkxcMBVCBBMmMMMMMnMMNVVVBMcxkfiy73;= SSSSSSSS",
"SSSSSSSSSSSS =;17qtpfjxcMBCCVVBBBBBBBVNACVVMcxjsiye72;= SSSSSSSS",
"SSSSSSSSSSSS =-159etisjxnNBBVVBVBBBVVVBVVVBnxjsite751-==SSSSSSSS",
"SSSSSSSSSSSSS=->257qtiflxnMNMMMMMMMMMMMMMMnxkfiyq752>-=SSSSSSSSS",
"SSSSSSSSSSSSSSS;>117qyiflxccvcvvvcvvxvvvvcxkfiyq721>;SSSSSSSSSSS",
"SSSSSSSSSSSSSSSS=-127eyidjklllkkllljllllkkksiye731-=SSSSSSSSSSSS",
"SSSSSSSSSSSSSSSS==-137etipsssasssssssssssaiuyq751===SSSSSSSSSSSS",
"SSSSSSSSSSSSSSSS ==;1377qerryreeeereerrerrrq7731-===SSSSSSSSSSSS",
"SSSSSSSSSSSSSSSS===;;>>33555755577755755555311>;====SSSSSSSSSSSS",
"SSSSSSSSSSSSSSSS====;;;;>>>>>>>>;;>>>>>;>>>>>;;;====SSSSSSSSSSSS",
"SSSSSSSSSSSSSSSS=====;;;;;>>;>>>;;;;>>>>>;;>;;;=====SSSSSSSSSSSS",
"SSSSSSSSSSSSSSSS= =;>>1>>>>3355311111177757531>>;===SSSSSSSSSSSS",
"SSSSSSSSSSSSSSSS ==;15577577qqeq7777qetttreq7751;== SSSSSSSSSSSS",
"SSSSSSSSSSSSSSSS==;>579999qrippirqerupsssspiyq73>;==SSSSSSSSSSSS",
"SSSSSSSSSSSSSSSS =;379qerryissfsittupsfhhhfsir971;= SSSSSSSSSSSS",
"SSSSSSSSSSSSSSSS =;17qryyiisfjjfspuipsshkhfspr771;= SSSSSSSSSSSS",
"SSSSSSSSSSSSSSSS =;36qeuipsfhjjhfssppupsshfsitq51;= SSSSSSSSSSSS",
"SSSSSSSSSSSSSSSS ==369eupshhhjjjffsputtpshhsirq71-= SSSSSSSSSSSS",
"SSSSSSSSSSSSSSSS ==>69tusfjjjjjjkhfpurrusffsir751== SSSSSSSSSSSS",
"SSSSSSSSSSSSSSSS==;36qtishjjjjjkjhhpurrypfssit971;==SSSSSSSSSSSS",
"SSSSSSSSSSSSSSSS ==36qtuphjjjjjjkjhpyerupffsue971-==SSSSSSSSSSSS",
"SSSSSSSSSSSSSSSS =;>59tushjjjjjjjjssutrusfssir751-= SSSSSSSSSSSS",
"SSSSSSSSSSSSSSSS.=-369tussjjjhhhhjhsutyusshsirq71-= SSSSSSSSSSSS",
"SSSSSSSSSSSSSSS+.==369tishhhsssshhhssuisshhsir971-. +SSSSSSSSSSS",
"SSSSSSSSSSSSSoXO+.=>60tishhssiisfhhhsssfhjfsit961>. O@XSSSSSSSSS",
"SSSSSSSSSSSSoXXO+.;36qrisshsuutishhjhffhjhfsit951=.#OXooSSSSSSSS",
"SSSSSSSSSSSSooXO+.-169tusssiteetifjjjhhjhffpur971>.+XXooSSSSSSSS",
"SSSSSSSSSSSSooXO.=-179ruipitq79eisjkljjhssiitr961=.+OXooSSSSSSSS",
"SSSSSSSSSSSSooX@+.=36qrututq733qyfjklkhfsiuttr973-.+OXooSSSSSSSS",
"SSSSSSSSSSSSooXO+.:16qqttrq73117tsjjjjhsitrrreq71-.+OXooSSSSSSSS",
"SSSSSSSSSSSSooXOO.->579qer961;>7rifhfssitreew0741=.+XXooSSSSSSSS",
"SSSSSSSSSSSoooXX#$$:3579qqq6>;;3qippitrrree97754>$#OXXoooSSSSSSS",
"SSSSSSSSSooooo@XX##$:>479w061>>39yurq0770ww063>>&$@XX%oooooSSSSS",
"SSSSSSSSooooooooo@##$->470061=-37qw05>3580073>=$+@XoooooooooSSSS",
"SSSSSSSSooooooooooXO#.->5884>-->5875>-->50861-$+OXooXoooooooSSSS",
"SSSSSSSSSoooooooooo@O+$:<44<:$&:>4<<&.$*<4<<:$#OXXoooooooooSSSSS",
"SSSSSSSSSSSSSSSooooo@@#%*,,*&%#%***&###%&*,*&#@XXooooSSSSSSSSSSS",
"SSSSSSSSSSSSSSSS@oooo@@o%%%%oo%%%%%o%@@#%o%%@@XoXoooSSSSSSSSSSSS",
"SSSSSSSSSSSSSSSSooooooooooooooooooooooooooooooooooooSSSSSSSSSSSS",
"SSSSSSSSSSSSSSSSooooooooooooooooooooooooooooooooooooSSSSSSSSSSSS"
};
